<?xml version="1.0" encoding="iso-8859-1"?>
<!-- Generator: Adobe Illustrator 16.0.0, SVG Export Plug-In . SVG Version: 6.00 Build 0)  -->
<!DOCTYPE svg PUBLIC "-//W3C//DTD SVG 1.1//EN" "http://www.w3.org/Graphics/SVG/1.1/DTD/svg11.dtd">
<svg version="1.1" xmlns="http://www.w3.org/2000/svg" xmlns:xlink="http://www.w3.org/1999/xlink" x="0px" y="0px" width="512px"
	 height="512px" viewBox="0 0 512 512" style="enable-background:new 0 0 512 512;" xml:space="preserve">
<g id="Artwork">
</g>
<g id="Layer_2">
	<g>
		<path d="M82.904,189.972v216.496c0,5.523,4.479,10,10,10h325.465c5.523,0,10-4.477,10-10V189.972c0-5.523-4.477-10-10-10H92.904
			C87.383,179.972,82.904,184.449,82.904,189.972z M102.904,199.972h305.465v196.496H102.904V199.972z"/>
		<path d="M465.539,95.532h-55.236h-4.338V58.363c0-5.523-4.479-10-10-10h-61.32c-5.521,0-10,4.477-10,10v37.169H186.629V58.363
			c0-5.523-4.477-10-10-10h-61.32c-5.521,0-10,4.477-10,10v37.169h-4.338H45.736c-5.523,0-10,4.477-10,10v348.104
			c0,5.523,4.477,10,10,10h419.803c5.521,0,10-4.477,10-10V105.532C475.539,100.009,471.061,95.532,465.539,95.532z M344.645,68.363
			h41.32v27.169h-41.32V68.363z M125.309,68.363h41.32v27.169h-41.32V68.363z M455.539,443.637H55.736V115.532h45.234h14.338h61.32
			h158.016h61.32h14.338h45.236V443.637z"/>
		<path d="M239.068,291.576c7.586-6.255,12.533-15.119,12.533-26.476c0-15.934-10.096-34.542-38.549-34.542
			c-15.25,0-29.818,6.524-38.367,12.631c-4.494,3.21-5.535,9.456-2.326,13.95c3.211,4.493,9.455,5.535,13.951,2.325
			c5.75-4.108,16.205-8.905,26.742-8.905c12.309,0,18.549,4.893,18.549,14.542c0,13.513-16.738,17.119-24.844,17.51
			c-0.486-0.009-0.977-0.013-1.469-0.013h-12.271c-5.521,0-10,4.527-10,10.05s4.479,10,10,10h12.271
			c0.537,0,1.074-0.007,1.611-0.021c7.686,0.267,30.244,2.755,30.463,22.711c0.047,2.582-0.391,9.147-5.477,14.329
			c-4.586,4.671-11.764,7.039-21.338,7.039c-12.539,0-25.213-5.197-30.67-8.69c-4.654-2.977-10.836-1.619-13.814,3.032
			c-2.977,4.652-1.619,10.836,3.033,13.813c6.873,4.399,23.34,11.845,41.451,11.845c18.861,0,29.775-7.085,35.609-13.029
			c7.318-7.455,11.4-17.919,11.201-28.634C257.203,310.708,250.465,299.028,239.068,291.576z"/>
		<path d="M308.693,231.596c-12.098,0-22.461,7.143-29.178,20.113c-6.057,11.697-9.127,27.699-9.127,47.562
			c0,61.61,29.156,66.398,38.092,66.398c14.307,0,38.307-8.792,38.307-67.675C346.787,240.222,322.92,231.596,308.693,231.596z
			 M308.48,345.668c-10.822,0-18.092-18.646-18.092-46.398c0-32.756,9.488-47.675,18.305-47.675
			c16.33,0,18.094,32.447,18.094,46.398C326.787,309.178,325.467,345.668,308.48,345.668z"/>
	</g>
</g>
</svg>
