<?xml version="1.0" encoding="iso-8859-1"?>
<!-- Generator: Adobe Illustrator 16.0.0, SVG Export Plug-In . SVG Version: 6.00 Build 0)  -->
<!DOCTYPE svg PUBLIC "-//W3C//DTD SVG 1.1//EN" "http://www.w3.org/Graphics/SVG/1.1/DTD/svg11.dtd">
<svg version="1.1" xmlns="http://www.w3.org/2000/svg" xmlns:xlink="http://www.w3.org/1999/xlink" x="0px" y="0px" width="512px"
	 height="512px" viewBox="0 0 512 512" style="enable-background:new 0 0 512 512;" xml:space="preserve">
<g id="Artwork">
</g>
<g id="Layer_3">
	<g>
		<path d="M380.132,286.543c0.74,0.355,18.132,8.918,17.19,28.77c-0.261,5.517,3.999,10.201,9.516,10.462
			c0.161,0.008,0.322,0.011,0.481,0.011c5.306,0,9.728-4.171,9.981-9.526c1.255-26.49-17.407-42.512-28.632-47.803
			c-4.988-2.351-10.908-0.212-13.273,4.765C373.031,278.199,375.161,284.163,380.132,286.543z"/>
		<path d="M171.932,320.508c-3.821-3.988-10.15-4.121-14.139-0.301c-19.121,18.323-16.632,42.798-12.147,54.37
			c1.533,3.957,5.305,6.373,9.307,6.373c1.198,0,2.416-0.216,3.602-0.672c5.146-1.98,7.71-7.771,5.743-12.921
			c-0.294-0.768-7.017-18.958,7.334-32.709C175.618,330.826,175.753,324.496,171.932,320.508z"/>
		<path d="M463.152,40.374c-2.873-1.836-6.484-2.083-9.582-0.654c-136.262,62.939-308.527,69.736-376.266,69.737
			c-14.302,0-22.583-0.327-22.665-0.33c-2.709-0.114-5.366,0.895-7.33,2.78c-1.963,1.886-3.073,4.49-3.073,7.212v50.329
			c0,5.366,4.234,9.775,9.596,9.992c0.35,0.014,8.728,0.346,23.473,0.346c0.004,0,0,0,0.005,0c35.104,0,97.766-1.809,169.261-12.063
			c0.586,3.135,1.776,8.553,3.931,15.082c-21.248,50.674-60.279,73.111-60.279,73.111c-39.679,6.899-74.103,35.509-86.327,76.661
			c-8.323,28.019-5.237,57.603,8.689,83.301c13.928,25.698,37.028,44.435,65.048,52.759c10.333,3.069,20.864,4.565,31.295,4.565
			c29.118,0,57.443-11.656,78.428-33.254c4.343-4.471,4.239-11.615-0.23-15.958c-4.47-4.343-11.614-4.241-15.959,0.23
			c-22.627,23.29-56.006,32.021-87.105,22.78c-22.24-6.607-40.576-21.479-51.631-41.876c-11.055-20.398-13.505-43.879-6.897-66.119
			c13.639-45.91,62.086-72.164,107.997-58.525c5.971,1.773,12.258-1.629,14.032-7.604c1.774-5.975-1.63-12.257-7.604-14.032
			c-5.164-1.534-10.353-2.66-15.534-3.411c11.632-10.523,25.669-26.381,37.174-48.71c4.861,7.716,11.169,15.197,19.325,21.132
			c3.632,2.643,7.454,4.854,11.451,6.645c-1.031,0.704-2.057,1.417-3.063,2.157c-19.341,14.213-33.186,33.916-40.037,56.978
			c-8.323,28.019-5.237,57.603,8.689,83.301c13.928,25.699,37.028,44.435,65.048,52.759c10.178,3.023,20.677,4.557,31.203,4.557
			c23.096,0,46.116-7.57,64.821-21.314c19.341-14.213,33.186-33.915,40.037-56.977c17.183-57.841-15.896-118.877-73.737-136.06
			c-10.178-3.023-20.677-4.557-31.204-4.557c-10.654,0-21.286,1.63-31.491,4.714c-11.555,0.569-21.391-2.174-29.872-8.318
			c-18.378-13.314-24.783-38.914-26.402-47.042c63.92-10.386,133.31-27.721,195.594-56.489c3.54-1.635,5.807-5.179,5.807-9.079
			V48.798C467.764,45.388,466.025,42.212,463.152,40.374z M354.129,237.911c8.35,0,16.686,1.219,24.776,3.623
			c45.911,13.639,72.167,62.085,58.528,107.996c-10.87,36.592-45.093,62.147-83.222,62.147c-8.35,0-16.685-1.218-24.775-3.622
			c-22.24-6.606-40.576-21.479-51.631-41.876s-13.505-43.879-6.897-66.119C281.778,263.468,316,237.911,354.129,237.911z
			 M447.764,92.688c-135.315,60.493-303.682,67.097-370.459,67.097c-5.18,0-9.57-0.042-13.068-0.098v-30.325
			c3.528,0.053,7.908,0.094,13.068,0.094c66.742-0.001,233.118-6.52,370.459-65.27V92.688z"/>
	</g>
</g>
</svg>
