<?xml version="1.0" encoding="iso-8859-1"?>
<!-- Generator: Adobe Illustrator 16.0.0, SVG Export Plug-In . SVG Version: 6.00 Build 0)  -->
<!DOCTYPE svg PUBLIC "-//W3C//DTD SVG 1.1//EN" "http://www.w3.org/Graphics/SVG/1.1/DTD/svg11.dtd">
<svg version="1.1" xmlns="http://www.w3.org/2000/svg" xmlns:xlink="http://www.w3.org/1999/xlink" x="0px" y="0px" width="512px"
	 height="512px" viewBox="0 0 512 512" style="enable-background:new 0 0 512 512;" xml:space="preserve">
<g id="Artwork">
</g>
<g id="Layer_3">
	<g>
		<g>
			<g>
				<g>
					<path d="M256.178,401.622c-0.006,0-0.007,0-0.013,0c-22.103-0.001-44.261-5.098-64.079-14.738
						c-20.798-10.116-38.433-24.651-52.415-43.201c-48.349-64.146-35.497-155.666,28.646-204.013
						c25.424-19.163,55.688-29.292,87.52-29.292c22.102,0,44.261,5.096,64.08,14.737c20.798,10.117,38.433,24.652,52.414,43.203
						c48.349,64.143,35.498,155.663-28.646,204.011C318.262,391.492,288,401.622,256.178,401.622z M167.134,343.406
						c23.14,23.278,54.517,36.394,87.988,36.394c5.825,0,11.674-0.412,17.438-1.227c12.809-19.754,6.411-57.961-17.381-104.724
						C233.635,303.827,203.063,327.98,167.134,343.406z M274.804,268.424c7.942,16.134,16.111,35.798,20.661,55.624
						c4.609,20.081,4.766,37.193,0.496,51.147c12.703-4.25,24.717-10.569,35.686-18.837c16.813-12.673,29.541-28.783,37.944-46.625
						C343.22,288.021,310.2,273.688,274.804,268.424z M132.767,231.65c-6.378,32.37-0.094,67.111,20.001,96.025
						c33.099-12.961,62.328-34.593,82.831-61.069c-17.054-0.95-39.211-3.527-59.856-10.019
						C156.409,250.508,142.038,242.158,132.767,231.65z M272.348,247.906c37.625,4.676,73.102,18.684,102.266,40.369
						c10.065-36.93,2.721-76.091-20.627-107.069c-0.656-0.873-1.334-1.747-2.043-2.634c-0.088-0.001-0.177-0.001-0.266-0.001
						c-16.246,0-42.03,20.1-67.301,52.461C279.608,237.286,275.537,243.12,272.348,247.906z M141.414,207.108
						c7.271,25.18,52.827,37.687,98.759,39.709c-15.262-32.65-21.017-70.471-16.854-110.862c-15.477,4.08-30.142,11.175-43,20.865
						c-17.126,12.911-30.589,30.028-39.069,49.637C141.303,206.682,141.357,206.898,141.414,207.108z M244.052,130.92
						c-5.067,38.089-0.674,73.681,12.778,104.207c3.205-4.746,7.135-10.313,11.681-16.271c0.022-0.029,0.045-0.059,0.067-0.088
						c15.032-19.257,42.233-49.692,69.472-58.027c-22.565-19.528-51.406-30.364-82.213-30.364
						C251.878,130.377,247.946,130.559,244.052,130.92z"/>
				</g>
			</g>
		</g>
		<g>
			<g>
				<g>
					<path d="M108.59,197.909c-2.282,0-4.575-0.776-6.454-2.365c-8.591-7.268-21.001-18.419-31.335-30.269
						c-15.046-17.253-20.901-30.404-18.428-41.386c1.322-5.867,5.634-13.585,18.67-17.04c18.386-4.871,39.543-24.782,58.21-42.349
						c23.271-21.898,41.648-39.197,59.439-35.829c22.582,4.273,41.102,36.542,52.66,62.859c2.221,5.057-0.078,10.957-5.135,13.177
						c-5.059,2.219-10.957-0.078-13.178-5.134c-12.816-29.184-27.759-49.301-38.066-51.251c-1.295-0.247-5.338-0.06-14.9,6.927
						c-8.083,5.905-17.326,14.604-27.113,23.814c-20.396,19.194-43.513,40.95-66.795,47.118c-3.029,0.803-4.208,1.779-4.28,2.102
						c-1.132,5.024,9.587,23.582,43.169,51.991c4.216,3.567,4.742,9.877,1.176,14.093
						C114.251,196.706,111.43,197.909,108.59,197.909z"/>
				</g>
			</g>
		</g>
		<g>
			<g>
				<g>
					<path d="M327.819,483.75c-1.51,0-3.01-0.137-4.509-0.42c-22.586-4.274-41.104-36.542-52.661-62.86
						c-2.221-5.057,0.079-10.957,5.136-13.177c5.057-2.218,10.956,0.079,13.177,5.135c12.815,29.183,27.758,49.3,38.067,51.25
						c1.293,0.242,5.335,0.06,14.899-6.928c8.082-5.905,17.325-14.604,27.112-23.814c20.396-19.194,43.513-40.95,66.793-47.117
						c3.029-0.803,4.209-1.779,4.281-2.102c1.132-5.021-9.587-23.577-43.165-51.993c-4.216-3.567-4.741-9.877-1.174-14.093
						c3.569-4.215,9.878-4.74,14.094-1.173c8.593,7.271,21.003,18.426,31.33,30.27c15.046,17.254,20.9,30.406,18.426,41.387
						c-1.322,5.866-5.635,13.584-18.671,17.038c-18.383,4.871-39.541,24.782-58.208,42.349
						C361.438,467.554,344.229,483.75,327.819,483.75z"/>
				</g>
			</g>
		</g>
	</g>
</g>
</svg>
