<?xml version="1.0" encoding="iso-8859-1"?>
<!-- Generator: Adobe Illustrator 16.0.0, SVG Export Plug-In . SVG Version: 6.00 Build 0)  -->
<!DOCTYPE svg PUBLIC "-//W3C//DTD SVG 1.1//EN" "http://www.w3.org/Graphics/SVG/1.1/DTD/svg11.dtd">
<svg version="1.1" xmlns="http://www.w3.org/2000/svg" xmlns:xlink="http://www.w3.org/1999/xlink" x="0px" y="0px" width="512px"
	 height="512px" viewBox="0 0 512 512" style="enable-background:new 0 0 512 512;" xml:space="preserve">
<g id="Artwork">
</g>
<g id="Layer_2">
	<g>
		<path d="M232.633,309.972c2.355-4.299,0.78-9.693-3.518-12.048c-4.299-2.355-9.693-0.781-12.048,3.518
			c-0.104,0.19-0.649,0.587-1.722,0.899c-4.083,1.187-12.114,0.239-20.838-4.563c-8.965-4.935-13.342-18.349-14.267-23.072
			c-0.909-4.816-5.545-7.987-10.367-7.075c-4.816,0.909-7.984,5.55-7.075,10.367c0.194,1.029,4.966,25.321,23.149,35.33
			c8.583,4.725,17.63,7.224,25.592,7.224c3.12,0,6.072-0.384,8.765-1.167C225.886,317.76,230.149,314.506,232.633,309.972z"/>
		<path d="M341.401,267.63c-4.818-0.909-9.458,2.259-10.367,7.075c-0.032,0.17-3.506,17.149-14.267,23.072
			c-8.725,4.802-16.753,5.752-20.838,4.563c-1.073-0.312-1.617-0.708-1.722-0.898c-2.355-4.299-7.75-5.875-12.048-3.519
			c-4.298,2.355-5.874,7.749-3.519,12.048c2.484,4.534,6.747,7.789,12.329,9.413c2.694,0.784,5.646,1.167,8.766,1.167
			c7.961,0,17.009-2.5,25.591-7.224c18.184-10.009,22.955-34.301,23.149-35.33C349.385,273.181,346.217,268.54,341.401,267.63z"/>
		<path d="M444.862,184.076c-0.848-2.946-3.156-5.246-6.104-6.083c-50.376-14.306-66.529-12.246-94.634-0.003
			c1.145-3.003,2.362-6.436,3.737-10.356c3.037-8.66,8.69-24.78,12.244-27.41l1.962-1.442c32.037-23.512,55.184-40.499,60.097-94.48
			c0.444-4.882-3.152-9.199-8.034-9.643c-4.888-0.442-9.199,3.153-9.643,8.034c-2.73,29.99-11.477,46.15-25.65,59.946
			c-15.429-15.77-23.03-48.078-24.756-60.369c-0.677-4.852-5.154-8.237-10.011-7.563c-4.855,0.674-8.244,5.157-7.569,10.012
			c0.287,2.064,6.605,45.77,28.833,69.465c-4.272,3.316-8.863,6.688-13.773,10.292l-1.964,1.443
			c-7.415,5.445-12.133,17.727-18.486,35.842c-2.207,6.293-5.541,15.801-7.194,17.851c-0.129,0.151-0.243,0.309-0.36,0.466
			l-24.491-7.943c-0.249-0.081-0.501-0.15-0.756-0.208c-12.957-2.969-26.916-4.412-42.675-4.412
			c-15.761,0-29.718,1.443-42.669,4.411c-0.255,0.059-0.507,0.128-0.756,0.209l-24.489,7.943c-0.117-0.155-0.23-0.313-0.358-0.462
			c-1.652-2.042-4.989-11.557-7.197-17.854c-6.353-18.115-11.072-30.397-18.485-35.842l-1.969-1.446
			c-4.909-3.603-9.498-6.974-13.769-10.289c22.227-23.695,28.546-67.4,28.833-69.465c0.675-4.855-2.714-9.338-7.569-10.012
			c-4.848-0.673-9.337,2.714-10.012,7.569c-1.707,12.279-9.275,44.575-24.752,60.366c-14.174-13.795-22.923-29.956-25.653-59.949
			c-0.444-4.882-4.758-8.473-9.643-8.034c-4.881,0.444-8.478,4.761-8.034,9.643c4.913,53.981,28.061,70.969,60.095,94.479
			l1.966,1.444c3.553,2.629,9.206,18.75,12.243,27.41c1.375,3.92,2.592,7.354,3.737,10.357
			c-28.108-12.244-44.261-14.304-94.635,0.002c-2.949,0.837-5.257,3.137-6.104,6.083c-0.335,1.163-3.093,11.874,3.022,29.628
			c7.639,22.175,25.328,45.621,52.577,69.685c15.254,14.015,21.946,37.243,29.695,64.135
			c13.208,45.841,29.647,102.892,100.845,129.302c0.996,0.369,2.041,0.554,3.086,0.554s2.091-0.185,3.086-0.554
			c71.197-26.41,87.636-83.46,100.844-129.301c7.748-26.891,14.441-50.119,29.693-64.134c27.25-24.064,44.94-47.511,52.579-69.687
			C447.956,195.949,445.197,185.239,444.862,184.076z M377.452,270.138c-0.041,0.036-0.082,0.073-0.122,0.109
			c-18.978,17.384-26.672,44.089-34.818,72.362c-13.134,45.582-26.708,92.69-86.875,116.394
			c-60.167-23.704-73.741-70.812-86.875-116.394c-8.146-28.273-15.841-54.978-34.818-72.361c-0.04-0.037-0.081-0.073-0.122-0.109
			c-44.165-38.983-50.105-66.328-50.526-76.724c45.234-12.349,55.999-8.813,86.375,5.18c6.55,3.01,12.789,1.752,17.495,0.319
			c0.051-0.016,0.103-0.032,0.153-0.048l29.986-9.727c11.53-2.608,24.074-3.876,38.328-3.876s26.798,1.269,38.334,3.878
			l29.986,9.726c0.051,0.017,0.103,0.032,0.154,0.048c4.705,1.433,10.945,2.689,17.502-0.323
			c30.369-13.989,41.133-17.525,86.368-5.177C427.557,203.81,421.617,231.155,377.452,270.138z"/>
		<path d="M261.03,372.167h-10.787c-14.635,0-26.542,11.925-26.542,26.583c0,14.659,11.907,26.584,26.542,26.584h10.787
			c14.636,0,26.543-11.925,26.543-26.584C287.573,384.092,275.666,372.167,261.03,372.167z M261.03,407.584h-10.787
			c-4.848,0-8.792-3.963-8.792-8.834c0-4.871,3.944-8.833,8.792-8.833h10.787c4.849,0,8.793,3.962,8.793,8.833
			C269.823,403.621,265.878,407.584,261.03,407.584z"/>
	</g>
</g>
</svg>
