<?xml version="1.0" encoding="iso-8859-1"?>
<!-- Generator: Adobe Illustrator 16.0.0, SVG Export Plug-In . SVG Version: 6.00 Build 0)  -->
<!DOCTYPE svg PUBLIC "-//W3C//DTD SVG 1.1//EN" "http://www.w3.org/Graphics/SVG/1.1/DTD/svg11.dtd">
<svg version="1.1" xmlns="http://www.w3.org/2000/svg" xmlns:xlink="http://www.w3.org/1999/xlink" x="0px" y="0px" width="512px"
	 height="512px" viewBox="0 0 512 512" style="enable-background:new 0 0 512 512;" xml:space="preserve">
<g id="Artwork">
</g>
<g id="Layer_2">
	<g>
		<path d="M453.252,403.806L334.33,328.963V221.528l118.923-74.843c7.925-4.988,13.433-12.763,15.51-21.894
			c2.077-9.131,0.474-18.524-4.513-26.448c-4.988-7.925-12.763-13.434-21.894-15.512c-9.132-2.076-18.524-0.474-26.449,4.514
			l-86.604,54.502c2.014-6.857,3.115-14.102,3.115-21.603c0-42.337-34.444-76.781-76.781-76.781s-76.781,34.444-76.781,76.781
			c0,7.5,1.101,14.745,3.115,21.603L95.368,87.345c-7.925-4.988-17.316-6.59-26.45-4.514c-9.13,2.078-16.906,7.586-21.893,15.511
			c-10.296,16.36-5.363,38.046,10.998,48.342l118.922,74.843v107.436L58.022,403.806c-16.36,10.296-21.293,31.982-10.997,48.342
			c6.655,10.576,18.067,16.376,29.727,16.375c6.377,0,12.831-1.737,18.616-5.377l123.215-77.543h74.11l123.215,77.544
			c16.36,10.294,38.047,5.362,48.342-10.998c4.988-7.925,6.591-17.318,4.514-26.449
			C466.686,416.569,461.177,408.794,453.252,403.806z M425.362,102.368c3.912-2.462,8.55-3.253,13.056-2.228
			c4.508,1.025,8.346,3.745,10.809,7.658c2.462,3.912,3.253,8.549,2.228,13.056c-1.025,4.508-3.745,8.346-7.657,10.809
			l-12.985,8.172c-1.663-0.26-2.085-0.497-2.55-1.205c-0.55-0.839-0.526-1.341,0.189-3.837c0.83-2.899,2.084-7.279-1.063-12.077
			c-3.147-4.796-7.665-5.388-10.655-5.779c-2.572-0.337-3.042-0.514-3.591-1.35c-0.549-0.838-0.524-1.339,0.19-3.835
			c0.187-0.651,0.393-1.381,0.568-2.171L425.362,102.368z M255.637,61.214c32.55,0,59.031,26.481,59.031,59.031
			s-26.481,59.031-59.031,59.031s-59.031-26.481-59.031-59.031S223.087,61.214,255.637,61.214z M62.047,107.797
			c2.462-3.913,6.301-6.632,10.809-7.658c4.507-1.026,9.144-0.234,13.057,2.228l13.774,8.668c0.32,1.336,0.245,1.797-0.183,2.449
			c-0.55,0.839-1.021,1.016-3.596,1.354c-2.99,0.392-7.508,0.985-10.655,5.783c-3.147,4.797-1.892,9.176-1.061,12.075
			c0.715,2.494,0.74,2.995,0.191,3.832c-0.549,0.838-1.02,1.015-3.593,1.352c-0.813,0.106-1.742,0.231-2.723,0.448l-10.59-6.665
			C59.4,126.58,56.965,115.874,62.047,107.797z M85.913,448.123c-8.076,5.083-18.783,2.647-23.866-5.43
			c-5.083-8.076-2.647-18.782,5.429-23.865l13.901-8.749c0.389,0.055,0.763,0.102,1.115,0.145c2.577,0.318,3.049,0.491,3.605,1.326
			c0.557,0.834,0.536,1.336-0.16,3.839c-0.808,2.905-2.029,7.295,1.156,12.069c3.184,4.771,7.707,5.328,10.699,5.696
			c2.575,0.317,3.046,0.49,3.602,1.322c0.556,0.833,0.535,1.335-0.161,3.836c-0.018,0.066-0.038,0.136-0.056,0.203L85.913,448.123z
			 M295.252,367.853h-79.23c-1.673,0-3.312,0.473-4.727,1.364l-100.026,62.95c-0.325-1.051-0.818-2.134-1.556-3.239
			c-3.184-4.772-7.707-5.329-10.699-5.697c-2.575-0.317-3.046-0.49-3.601-1.321c-0.557-0.835-0.536-1.337,0.16-3.84
			c0.808-2.905,2.029-7.295-1.156-12.068c-0.726-1.088-1.523-1.948-2.354-2.646l98.484-61.98c2.582-1.625,4.148-4.461,4.148-7.511
			V216.627c0-3.05-1.566-5.887-4.148-7.511L89.395,145.457c1.193-0.805,2.342-1.907,3.35-3.442
			c3.147-4.797,1.892-9.176,1.061-12.075c-0.715-2.494-0.74-2.995-0.191-3.832c0.55-0.839,1.021-1.016,3.596-1.354
			c2.99-0.392,7.508-0.985,10.655-5.783c0.464-0.707,0.822-1.403,1.111-2.089l93.987,59.149c13.76,13,32.295,20.995,52.674,20.995
			s38.914-7.996,52.674-20.995l94.623-59.549c0.251,1.459,0.804,3,1.847,4.59c3.147,4.797,7.665,5.388,10.654,5.779
			c2.573,0.337,3.042,0.514,3.591,1.35c0.551,0.839,0.526,1.341-0.189,3.838c-0.83,2.898-2.084,7.279,1.064,12.077
			c0.429,0.654,0.885,1.223,1.357,1.73l-100.531,63.269c-2.582,1.625-4.148,4.461-4.148,7.511v117.237
			c0,3.05,1.566,5.887,4.148,7.511l98.489,61.983c-0.92,0.677-1.813,1.542-2.637,2.663c-3.399,4.621-2.38,9.062-1.705,12
			c0.581,2.529,0.579,3.031-0.014,3.836c-0.595,0.808-1.074,0.96-3.663,1.159c-3.007,0.231-7.55,0.581-10.951,5.204
			c-0.759,1.032-1.288,2.053-1.66,3.052l-98.607-62.057C298.564,368.325,296.925,367.853,295.252,367.853z M449.226,442.694
			c-5.082,8.076-15.787,10.512-23.865,5.43l-17.234-10.846c-0.412-1.914-0.359-2.406,0.174-3.129
			c0.595-0.808,1.074-0.96,3.663-1.159c3.006-0.231,7.55-0.582,10.951-5.204c3.399-4.621,2.38-9.062,1.705-12
			c-0.581-2.529-0.579-3.031,0.014-3.836c0.594-0.807,1.073-0.958,3.661-1.157c0.709-0.055,1.505-0.118,2.35-0.24l13.152,8.277
			c3.913,2.462,6.632,6.301,7.657,10.809C452.48,434.145,451.689,438.781,449.226,442.694z"/>
		<path d="M255.637,214.863c-5.725,0-10.383,4.658-10.383,10.382s4.658,10.382,10.383,10.382s10.383-4.658,10.383-10.382
			S261.362,214.863,255.637,214.863z"/>
		<path d="M255.637,264.863c-5.725,0-10.383,4.658-10.383,10.382s4.658,10.382,10.383,10.382s10.383-4.658,10.383-10.382
			S261.362,264.863,255.637,264.863z"/>
		<path d="M255.637,314.863c-5.725,0-10.383,4.658-10.383,10.382s4.658,10.382,10.383,10.382s10.383-4.658,10.383-10.382
			S261.362,314.863,255.637,314.863z"/>
		<path d="M279.397,116.279c6.744,0,12.23-5.487,12.23-12.231s-5.486-12.231-12.23-12.231c-6.743,0-12.229,5.487-12.229,12.231
			S272.654,116.279,279.397,116.279z"/>
		<path d="M231.877,116.279c6.744,0,12.23-5.487,12.23-12.231s-5.486-12.231-12.23-12.231s-12.23,5.487-12.23,12.231
			S225.133,116.279,231.877,116.279z"/>
		<path d="M238.99,133.913c-2.051-4.222-7.137-5.982-11.36-3.93c-4.223,2.051-5.982,7.138-3.93,11.36
			c5.408,11.13,17.646,18.044,31.938,18.044s26.529-6.914,31.938-18.044c2.052-4.222,0.292-9.309-3.93-11.36
			c-4.221-2.052-9.309-0.292-11.36,3.93c-2.501,5.147-9.036,8.474-16.647,8.474S241.491,139.061,238.99,133.913z"/>
	</g>
</g>
</svg>
