<?xml version="1.0" encoding="iso-8859-1"?>
<!-- Generator: Adobe Illustrator 16.0.0, SVG Export Plug-In . SVG Version: 6.00 Build 0)  -->
<!DOCTYPE svg PUBLIC "-//W3C//DTD SVG 1.1//EN" "http://www.w3.org/Graphics/SVG/1.1/DTD/svg11.dtd">
<svg version="1.1" xmlns="http://www.w3.org/2000/svg" xmlns:xlink="http://www.w3.org/1999/xlink" x="0px" y="0px" width="512px"
	 height="512px" viewBox="0 0 512 512" style="enable-background:new 0 0 512 512;" xml:space="preserve">
<g id="Artwork">
</g>
<g id="Layer_3">
	<g>
		<path d="M458.729,185.889c-3.241-1.744-7.178-1.566-10.249,0.461l-16.439,10.855V71.342c0-5.523-4.478-10-10-10H89.96
			c-5.523,0-10,4.477-10,10v124.933l-16.44-10.856c-3.071-2.027-7.008-2.206-10.248-0.461c-3.241,1.744-5.262,5.126-5.262,8.806
			v246.895c0,5.523,4.477,10,10,10h395.98c5.522,0,10-4.477,10-10V194.695C463.99,191.015,461.969,187.632,458.729,185.889z
			 M99.96,81.342h312.08v129.071L256.705,312.987L99.96,209.482V81.342z M443.99,430.658H68.01V212.351l183.185,120.965
			c3.342,2.207,7.677,2.207,11.021,0L443.99,213.282V430.658z"/>
		<path d="M263.5,266.853v-11.701l5.924,5.924c1.465,1.464,3.385,2.197,5.304,2.197s3.839-0.732,5.304-2.197
			c2.929-2.929,2.929-7.678,0-10.606L263.5,233.938v-17.351c5.918-1.448,11.182-4.571,15.268-8.835l15.044,8.686l6.051,22.581
			c0.897,3.351,3.928,5.561,7.239,5.561c0.643,0,1.296-0.083,1.946-0.257c4.001-1.072,6.375-5.185,5.303-9.186l-2.168-8.093
			l10.133,5.851c1.182,0.682,2.471,1.006,3.743,1.006c2.592,0,5.113-1.346,6.502-3.751c2.071-3.587,0.842-8.174-2.745-10.245
			l-10.132-5.85l8.093-2.168c4.001-1.072,6.375-5.185,5.303-9.186c-1.072-4.001-5.185-6.373-9.186-5.304l-22.582,6.05l-15.027-8.676
			c0.817-2.802,1.265-5.761,1.265-8.824s-0.447-6.021-1.265-8.824l15.027-8.676l22.582,6.05c0.65,0.174,1.304,0.257,1.946,0.257
			c3.312,0,6.342-2.21,7.239-5.561c1.072-4.001-1.302-8.113-5.303-9.186l-8.093-2.168l10.132-5.85
			c3.587-2.071,4.816-6.658,2.745-10.245c-2.072-3.588-6.659-4.816-10.245-2.745l-10.134,5.851l2.169-8.094
			c1.072-4.001-1.302-8.113-5.303-9.186c-4.001-1.074-8.113,1.303-9.186,5.304l-6.051,22.582l-15.043,8.686
			c-4.086-4.264-9.35-7.387-15.268-8.835v-17.351l16.53-16.531c2.929-2.929,2.929-7.678-0.001-10.606
			c-2.928-2.93-7.677-2.929-10.606,0l-5.923,5.923v-11.699c0-4.142-3.357-7.5-7.5-7.5c-4.142,0-7.5,3.358-7.5,7.5v11.701
			l-5.925-5.925c-2.93-2.929-7.678-2.928-10.607,0c-2.929,2.929-2.928,7.678,0,10.607l16.532,16.53v17.351
			c-5.918,1.449-11.182,4.571-15.268,8.835l-15.045-8.686l-6.05-22.582c-1.072-4.001-5.187-6.374-9.186-5.304
			c-4.001,1.072-6.375,5.185-5.304,9.186l2.168,8.093l-10.133-5.85c-3.588-2.072-8.174-0.842-10.245,2.745
			c-2.071,3.587-0.842,8.174,2.745,10.245l10.133,5.851l-8.093,2.168c-4.001,1.072-6.375,5.185-5.303,9.186
			c0.898,3.351,3.928,5.561,7.24,5.561c0.643,0,1.296-0.083,1.946-0.257l22.581-6.052l15.029,8.677
			c-0.818,2.802-1.265,5.761-1.265,8.824c0,3.063,0.447,6.021,1.265,8.823l-15.028,8.677l-22.582-6.051
			c-4-1.068-8.114,1.302-9.186,5.303c-1.072,4.001,1.302,8.114,5.303,9.186l8.094,2.169l-10.133,5.85
			c-3.587,2.071-4.816,6.658-2.745,10.245c1.389,2.406,3.91,3.751,6.502,3.751c1.272,0,2.562-0.324,3.743-1.006l10.133-5.85
			l-2.168,8.093c-1.072,4.001,1.303,8.113,5.304,9.186c0.65,0.174,1.303,0.257,1.946,0.257c3.311,0,6.342-2.21,7.24-5.561
			l6.05-22.582l15.044-8.686c4.086,4.264,9.35,7.386,15.267,8.835v17.352l-16.531,16.531c-2.929,2.929-2.929,7.678,0,10.606
			c2.929,2.929,7.678,2.929,10.606,0l5.924-5.924v11.701c0,4.142,3.358,7.5,7.5,7.5C260.143,274.353,263.5,270.995,263.5,266.853z
			 M239.452,185.947c0-9.125,7.424-16.549,16.549-16.549s16.548,7.424,16.548,16.549c0,9.125-7.423,16.548-16.548,16.548
			S239.452,195.072,239.452,185.947z"/>
	</g>
</g>
</svg>
