<?xml version="1.0" encoding="iso-8859-1"?>
<!-- Generator: Adobe Illustrator 16.0.0, SVG Export Plug-In . SVG Version: 6.00 Build 0)  -->
<!DOCTYPE svg PUBLIC "-//W3C//DTD SVG 1.1//EN" "http://www.w3.org/Graphics/SVG/1.1/DTD/svg11.dtd">
<svg version="1.1" xmlns="http://www.w3.org/2000/svg" xmlns:xlink="http://www.w3.org/1999/xlink" x="0px" y="0px" width="512px"
	 height="512px" viewBox="0 0 512 512" style="enable-background:new 0 0 512 512;" xml:space="preserve">
<g id="Artwork">
</g>
<g id="Layer_3">
	<path d="M454.708,180.243c-0.774-1.748-8.403-17.509-37.451-32.553c-10.535-5.456-22.481-10.143-35.792-14.059l64.754-49.848
		c4.377-3.369,5.193-9.647,1.824-14.024c-3.368-4.376-9.647-5.193-14.023-1.824l-77.424,59.601
		c-28.637-5.774-62.243-8.691-100.596-8.691c-38.352,0-71.958,2.917-100.595,8.691L77.981,67.936
		c-4.378-3.37-10.656-2.552-14.024,1.824c-3.369,4.376-2.552,10.655,1.824,14.024l64.755,49.848
		c-13.311,3.917-25.256,8.603-35.791,14.059c-29.048,15.043-36.677,30.805-37.451,32.553c-0.565,1.275-0.857,2.655-0.857,4.05
		l-0.002,164.149v0.212v0.315l0.001,54.981c0,4.264,2.704,8.058,6.734,9.451c62.871,21.724,127.748,32.738,192.831,32.738
		s129.96-11.015,192.83-32.738c4.03-1.393,6.734-5.188,6.734-9.452v-54.98v-0.527V184.294
		C455.565,182.899,455.273,181.519,454.708,180.243z M106.695,164.063c10.203-4.999,24.469-10.413,43.965-14.939l50.22,38.66
		c1.818,1.399,3.964,2.077,6.093,2.077c2.998,0,5.962-1.342,7.931-3.9c3.369-4.376,2.552-10.655-1.824-14.024l-36.086-27.779
		c21.461-3.223,47.497-5.311,79.006-5.311s57.545,2.088,79.006,5.311l-36.086,27.779c-4.377,3.369-5.193,9.647-1.824,14.024
		c1.97,2.559,4.934,3.9,7.931,3.9c2.129,0,4.275-0.677,6.093-2.077l50.221-38.66c19.496,4.526,33.762,9.941,43.966,14.939
		c15.915,7.796,24.216,15.591,28.146,20.225c0,0-16.949,13.087-54.425,21.854C342.533,214.679,298.842,219.38,256,219.38
		s-86.534-4.702-123.027-13.238c-37.476-8.767-54.425-21.852-54.425-21.852S90.779,171.86,106.695,164.063z M398.8,221.715
		l-10.049,38.721l-15.073-32.632c5.842-1.226,11.556-2.533,17.086-3.939C393.515,223.165,396.189,222.447,398.8,221.715z
		 M286.677,238.608l-30.676,66.416l-30.676-66.416c10.182,0.501,20.434,0.772,30.675,0.772
		C266.242,239.38,276.494,239.109,286.677,238.608z M138.322,227.804l-15.073,32.632L113.2,221.715
		c2.609,0.731,5.285,1.45,8.036,2.149C126.767,225.271,132.48,226.578,138.322,227.804z M435.565,396.781
		c-58.654,19.484-119.031,29.36-179.564,29.36c-60.534,0-120.911-9.876-179.565-29.36l0-32.677
		c5.254,2.034,10.821,3.986,16.671,5.84c45.466,14.411,103.316,22.347,162.894,22.347c59.579,0,117.429-7.937,162.894-22.347
		c5.851-1.854,11.418-3.807,16.672-5.84V396.781z M435.565,341.715c-5.462,2.137-11.245,4.177-17.276,6.089
		c-45.275,14.351-102.91,22.254-162.289,22.254c-59.378,0-117.014-7.903-162.29-22.254c-6.029-1.911-11.812-3.952-17.276-6.089
		l0.002-133.84c0.917,0.493,9.98,4.792,14.249,6.45l20.232,78.212c1.061,4.09,4.578,7.071,8.787,7.448
		c0.3,0.027,0.599,0.04,0.896,0.04c3.87,0,7.429-2.245,9.074-5.807l29.044-62.719c14.086,2.326,28.863,4.293,43.872,5.586
		l44.332,95.98c1.635,3.54,5.179,5.807,9.079,5.807s7.443-2.267,9.078-5.807l44.33-95.979c15.207-1.31,30.079-3.176,44.335-5.546
		c0.147,0.825,0.39,1.646,0.758,2.442l27.823,60.237c1.646,3.562,5.204,5.807,9.074,5.807c0.297,0,0.597-0.013,0.896-0.04
		c4.208-0.377,7.726-3.358,8.787-7.448l20.231-78.212c4.27-1.658,13.334-5.958,14.251-6.451V341.715z"/>
</g>
</svg>
