<?xml version="1.0" encoding="iso-8859-1"?>
<!-- Generator: Adobe Illustrator 16.0.0, SVG Export Plug-In . SVG Version: 6.00 Build 0)  -->
<!DOCTYPE svg PUBLIC "-//W3C//DTD SVG 1.1//EN" "http://www.w3.org/Graphics/SVG/1.1/DTD/svg11.dtd">
<svg version="1.1" xmlns="http://www.w3.org/2000/svg" xmlns:xlink="http://www.w3.org/1999/xlink" x="0px" y="0px" width="512px"
	 height="512px" viewBox="0 0 512 512" style="enable-background:new 0 0 512 512;" xml:space="preserve">
<g id="Artwork">
</g>
<g id="Layer_2">
	<path d="M484.656,274.743c-10.688-25.813-29.425-49.128-55.691-69.296c-3.077-2.362-7.243-2.733-10.687-0.949
		c-3.445,1.783-5.548,5.397-5.396,9.273c0.561,14.265-7.783,24.563-24.799,30.609c-19.967,7.096-49.044,7.191-77.781,0.26
		c-29.585-7.138-53.326-20.26-65.135-36.003c-25.207-33.601-49.016-29.599-64.77-26.944c-5.581,0.938-10.401,1.747-13.273,0.58
		c-3.816-1.553-6.751-8.281-8.542-13.652c-6.368-19.104-16.826-35.263-31.084-48.028c-3.098-2.773-7.587-3.341-11.278-1.425
		c-3.69,1.915-5.81,5.914-5.324,10.043c0.055,0.469,0.116,0.937,0.177,1.406c0.152,1.174,0.296,2.283,0.283,3.08
		c-0.488,29.139-4.414,35.545-11.54,47.176c-4.749,7.75-10.658,17.395-17.279,35.152c-8.795,23.587-9.182,44.352-1.151,61.717
		c7.277,15.735,21.16,28.155,41.297,37.02l-14.974,59.195H59.328c-12.364,0-22.423-10.059-22.423-22.423
		s10.059-22.423,22.423-22.423c5.523,0,10-4.478,10-10s-4.477-10-10-10c-23.392,0-42.423,19.031-42.423,42.423
		s19.031,42.423,42.423,42.423h56.143c0.01,0,0.021,0.002,0.032,0.002c0.016,0,0.031-0.002,0.046-0.002h139.414
		c0.013,0,0.026,0.002,0.039,0.002c0.015,0,0.03-0.002,0.045-0.002h142.092c0.013,0,0.026,0.002,0.039,0.002
		c0.015,0,0.03-0.002,0.045-0.002h24.699c39.949,0,72.449-32.5,72.449-72.447C494.37,306.263,491.011,290.091,484.656,274.743z
		 M99.539,269.348c-5.708-12.344-5.124-27.933,1.738-46.335c5.945-15.945,11.07-24.311,15.592-31.691
		c6.696-10.929,11.215-19.193,13.27-36.741c3.858,6.225,7.023,13.024,9.47,20.365c10.697,32.092,30.008,28.843,44.107,26.471
		c14.169-2.384,27.554-4.636,45.453,19.224c14.553,19.399,42.416,35.233,76.444,43.442c32.358,7.807,65.692,7.487,89.168-0.855
		c17.88-6.354,29.874-17.037,35.12-30.912c26.101,23.995,37.088,48.271,41.563,66.462h-58.755c-0.026,0-0.052,0-0.078,0H270.533
		c-0.026,0-0.052,0-0.078,0H136.435C117.737,291.729,105.315,281.839,99.539,269.348z M267.263,373.957l11.376-55.181h121.755
		l-11.376,55.181H267.263z M142.297,318.776h115.921l-11.376,55.181H128.339L142.297,318.776z M421.92,373.957h-12.482
		l11.376-55.181h53.504c0.033,0.972,0.051,1.892,0.051,2.733C474.37,350.43,450.841,373.957,421.92,373.957z"/>
</g>
</svg>
