<?xml version="1.0" encoding="iso-8859-1"?>
<!-- Generator: Adobe Illustrator 16.0.0, SVG Export Plug-In . SVG Version: 6.00 Build 0)  -->
<!DOCTYPE svg PUBLIC "-//W3C//DTD SVG 1.1//EN" "http://www.w3.org/Graphics/SVG/1.1/DTD/svg11.dtd">
<svg version="1.1" xmlns="http://www.w3.org/2000/svg" xmlns:xlink="http://www.w3.org/1999/xlink" x="0px" y="0px" width="512px"
	 height="512px" viewBox="0 0 512 512" style="enable-background:new 0 0 512 512;" xml:space="preserve">
<g id="Artwork">
</g>
<g id="Layer_2">
	<path d="M447.018,209.932c-5.328-6.826-10.361-13.273-12.279-19.182c-2.066-6.363-1.813-14.834-1.543-23.801
		c0.414-13.738,0.881-29.309-7.855-41.314c-8.824-12.125-23.861-16.488-37.127-20.34c-8.545-2.479-16.617-4.822-21.912-8.676
		c-4.121-2.999-7.912-7.975-11.771-13.557c-0.154-16.769-8.229-24.426-15.096-27.902c-19.633-9.939-50.727,4.285-66.576,14.896
		c-3.906-2.302-8.453-3.628-13.307-3.628h-7.824c-4.871,0-9.436,1.336-13.352,3.654c-18.256-12.542-49.598-23.813-68.424-12.005
		c-6.217,3.9-12.691,11.246-13.178,24.943c-3.871,5.599-7.67,10.591-11.803,13.601c-5.295,3.854-13.365,6.195-21.91,8.674
		c-13.266,3.85-28.301,8.215-37.123,20.338c-8.738,12.006-8.271,27.578-7.859,41.316c0.27,8.967,0.523,17.438-1.545,23.803
		c-1.916,5.906-6.949,12.355-12.277,19.182c-8.613,11.037-18.379,23.547-18.379,39.012s9.766,27.975,18.379,39.012
		c5.328,6.828,10.361,13.275,12.279,19.184c2.066,6.363,1.813,14.832,1.543,23.799c-0.412,13.74-0.879,29.313,7.857,41.318
		c8.824,12.125,23.859,16.488,37.125,20.338c8.545,2.48,16.617,4.822,21.912,8.676c5.178,3.768,9.832,10.652,14.76,17.941
		c7.791,11.523,16.619,24.582,31.074,29.275c3.566,1.156,7.426,1.744,11.471,1.744c10.127,0,20.107-3.578,29.76-7.039
		c8.578-3.076,16.68-5.98,23.6-5.98s15.021,2.904,23.6,5.98c9.652,3.461,19.635,7.039,29.76,7.039c4.045,0,7.904-0.588,11.471-1.744
		c14.455-4.693,23.283-17.752,31.072-29.275c4.928-7.289,9.584-14.174,14.762-17.941c5.295-3.854,13.367-6.195,21.912-8.676
		c13.266-3.85,28.301-8.213,37.123-20.338c8.74-12.006,8.273-27.578,7.859-41.318c-0.27-8.967-0.523-17.436,1.545-23.801
		c1.916-5.906,6.949-12.355,12.277-19.182c8.613-11.037,18.379-23.547,18.379-39.012S455.631,220.971,447.018,209.932z
		 M361.822,214.439c2.709,8.342,9.432,14.668,15.932,20.787c4.639,4.367,10.99,10.346,10.99,13.719s-6.352,9.352-10.99,13.717
		c-6.5,6.119-13.223,12.447-15.932,20.791c-2.805,8.643-1.082,17.934,0.586,26.918c1.064,5.738,2.674,14.408,0.924,16.814
		c-1.814,2.492-10.289,3.594-16.479,4.396c-9.018,1.172-18.342,2.383-25.621,7.68c-7.197,5.238-11.186,13.676-15.041,21.836
		c-2.693,5.691-6.377,13.49-9.412,14.475c-0.186,0.061-0.434,0.092-0.732,0.092c-3.371,0-9.352-3.252-14.629-6.119
		c-7.744-4.211-16.523-8.982-25.781-8.982c-9.256,0-18.035,4.771-25.779,8.98c-5.277,2.869-11.26,6.121-14.631,6.121
		c-0.301,0-0.547-0.031-0.732-0.092c-3.033-0.984-6.719-8.781-9.41-14.473c-3.857-8.16-7.844-16.598-15.041-21.834
		c-7.281-5.299-16.605-6.512-25.625-7.682c-6.188-0.805-14.662-1.906-16.477-4.398c-1.75-2.404-0.141-11.074,0.924-16.813
		c1.668-8.986,3.391-18.279,0.584-26.922c-2.709-8.344-9.43-14.672-15.93-20.789c-4.639-4.365-10.99-10.344-10.99-13.717
		s6.352-9.352,10.99-13.717c6.5-6.119,13.221-12.447,15.932-20.791c2.805-8.643,1.082-17.934-0.586-26.918
		c-1.064-5.738-2.674-14.41-0.924-16.816c1.814-2.49,10.289-3.592,16.477-4.395c9.018-1.172,18.342-2.383,25.621-7.68
		c3.055-2.223,5.531-5.023,7.664-8.134c11.773-2.806,23.953-8.572,35.135-16.731c-1.211,10.679-7.883,43.879-44.51,77.674
		c-4.059,3.745-4.313,10.072-0.568,14.131c1.973,2.137,4.658,3.219,7.354,3.219c2.424,0,4.855-0.877,6.777-2.65
		c38.223-35.267,47.92-70.81,50.379-86.973h6.732c2.459,16.163,12.158,51.706,50.381,86.973c1.924,1.774,4.354,2.65,6.779,2.65
		c2.693,0,5.381-1.083,7.352-3.219c3.746-4.06,3.49-10.386-0.568-14.131c-36.938-34.08-43.408-67.296-44.539-77.866
		c8.391,6.019,22.311,14.817,36.301,18.502c1.869,2.478,3.996,4.714,6.523,6.554c7.279,5.297,16.605,6.508,25.625,7.68
		c6.188,0.805,14.662,1.906,16.477,4.398c1.75,2.404,0.141,11.076-0.924,16.813C360.74,196.504,359.018,205.795,361.822,214.439z
		 M330.4,73.004c1.066,0.54,4.311,2.182,4.125,11.26c0,0.02,0,0.039,0,0.059c-0.068,3.028-0.693,6.29-1.355,9.743
		c-0.754,3.93-1.533,7.993-1.693,12.468c-0.145,3.938,0.492,7.994,1.109,11.916c0.76,4.837,1.799,11.462-0.021,13.37
		c-6.15,6.439-29.166-3.827-46.75-17.652c0.021-0.431,0.033-0.864,0.033-1.3V92.723c0-2.33-0.309-4.588-0.879-6.741
		C299.848,76.142,321.658,68.582,330.4,73.004z M251.727,86.428h7.824c3.473,0,6.297,2.824,6.297,6.295v20.145
		c0,3.472-2.824,6.297-6.297,6.297h-7.824c-3.471,0-6.297-2.825-6.297-6.297V92.723C245.43,89.252,248.256,86.428,251.727,86.428z
		 M180.582,75.019c8.162-5.116,30.039,0.407,45.715,11.011c-0.564,2.139-0.867,4.381-0.867,6.693v20.145
		c0,0.443,0.012,0.883,0.033,1.32c-11.371,9.328-28.426,18.608-44.207,18.249c-1.26-0.03-2.029-0.261-2.213-0.464
		c-2.217-2.448-1.389-13.427-0.943-19.324c0.516-6.812,1-13.245-0.209-18.689C176.357,87.051,175.578,78.157,180.582,75.019z
		 M430.076,274.734c-6.24,7.994-12.691,16.26-15.777,25.768c-3.221,9.914-2.896,20.676-2.584,31.082
		c0.338,11.297,0.658,21.965-3.754,28.027c-4.498,6.18-14.816,9.174-25.738,12.344c-9.945,2.887-20.229,5.871-28.566,11.938
		c-8.227,5.986-14.172,14.781-19.92,23.283c-6.418,9.494-12.48,18.461-19.906,20.871c-1.439,0.467-3.021,0.693-4.834,0.693
		c-6.391,0-14.219-2.805-22.506-5.777c-9.93-3.559-20.199-7.24-30.854-7.24s-20.922,3.682-30.852,7.24
		c-8.289,2.973-16.117,5.777-22.508,5.777c-1.813,0.002-3.395-0.227-4.834-0.693c-7.426-2.41-13.488-11.377-19.906-20.871
		c-5.748-8.502-11.693-17.297-19.92-23.283c-8.338-6.066-18.621-9.051-28.566-11.938c-10.922-3.17-21.24-6.164-25.738-12.344
		c-4.412-6.063-4.092-16.73-3.752-28.027c0.311-10.406,0.635-21.168-2.586-31.08c-3.086-9.508-9.539-17.775-15.777-25.77
		c-7.111-9.111-13.828-17.719-13.828-25.789s6.717-16.678,13.828-25.789c6.238-7.994,12.691-16.26,15.777-25.768
		c3.221-9.916,2.896-20.676,2.586-31.082c-0.34-11.297-0.66-21.965,3.752-28.029c4.498-6.18,14.814-9.172,25.738-12.342
		c9.945-2.887,20.229-5.871,28.566-11.939c0.119-0.087,0.23-0.186,0.35-0.274c-0.789,10.958-1.117,22.835,5.707,31.009
		c-0.68,0.091-1.357,0.18-2.023,0.266c-11.172,1.451-23.83,3.096-31.086,13.063c-7.191,9.881-4.873,22.367-2.83,33.381
		c1.123,6.053,2.396,12.91,1.277,16.361c-1.01,3.105-5.904,7.713-10.223,11.777c-8.32,7.834-17.75,16.709-17.75,29.367
		s9.43,21.533,17.75,29.365c4.318,4.064,9.213,8.672,10.221,11.777c1.121,3.451-0.152,10.313-1.275,16.365
		c-2.043,11.014-4.361,23.498,2.83,33.379c7.254,9.967,19.914,11.611,31.086,13.063c6.047,0.787,12.902,1.678,15.746,3.746
		c2.76,2.01,5.682,8.189,8.258,13.643c4.848,10.254,10.342,21.879,22.203,25.73c2.334,0.758,4.813,1.141,7.371,1.141
		c8.834,0,16.998-4.438,24.893-8.729c5.494-2.988,11.723-6.373,15.516-6.373c3.795,0,10.021,3.385,15.518,6.373
		c7.893,4.291,16.057,8.729,24.893,8.729c2.557,0,5.035-0.385,7.371-1.143c11.859-3.85,17.355-15.475,22.203-25.73
		c2.576-5.453,5.498-11.635,8.258-13.643c2.842-2.068,9.697-2.959,15.744-3.744c11.17-1.451,23.83-3.096,31.084-13.063
		c7.191-9.883,4.875-22.367,2.832-33.381c-1.123-6.053-2.396-12.912-1.277-16.361c1.01-3.105,5.904-7.713,10.223-11.777
		c8.32-7.834,17.75-16.709,17.75-29.367s-9.43-21.535-17.75-29.367c-4.318-4.064-9.213-8.672-10.221-11.777
		c-1.121-3.451,0.152-10.311,1.275-16.361c2.043-11.014,4.359-23.5-2.832-33.381c-7.25-9.967-19.912-11.611-31.082-13.063
		c-0.596-0.077-1.199-0.156-1.805-0.237c7.734-8.961,5.885-20.738,4.523-29.412c-0.145-0.917-0.285-1.815-0.41-2.684
		c0.564,0.456,1.135,0.905,1.723,1.333c8.338,6.068,18.621,9.053,28.566,11.939c10.924,3.17,21.242,6.164,25.74,12.344
		c4.412,6.063,4.09,16.73,3.752,28.025c-0.313,10.408-0.637,21.168,2.584,31.084c3.086,9.508,9.537,17.773,15.777,25.766
		c7.111,9.113,13.828,17.721,13.828,25.791S437.188,265.623,430.076,274.734z"/>
</g>
</svg>
