<?xml version="1.0" encoding="iso-8859-1"?>
<!-- Generator: Adobe Illustrator 16.0.0, SVG Export Plug-In . SVG Version: 6.00 Build 0)  -->
<!DOCTYPE svg PUBLIC "-//W3C//DTD SVG 1.1//EN" "http://www.w3.org/Graphics/SVG/1.1/DTD/svg11.dtd">
<svg version="1.1" xmlns="http://www.w3.org/2000/svg" xmlns:xlink="http://www.w3.org/1999/xlink" x="0px" y="0px" width="512px"
	 height="512px" viewBox="0 0 512 512" style="enable-background:new 0 0 512 512;" xml:space="preserve">
<g id="Artwork">
</g>
<g id="Layer_3">
	<path d="M407.267,347.905L282.168,115.194C289.627,108.117,294,98.211,294,87.634c0-20.953-17.047-38-38-38s-38,17.046-38,38
		c0,10.577,4.373,20.483,11.832,27.56L104.733,347.905c-14.504,4.571-25.051,18.146-25.051,34.139v44.535
		c0,19.733,16.054,35.787,35.787,35.787h281.063c19.733,0,35.787-16.054,35.787-35.787v-44.535
		C432.318,366.05,421.771,352.476,407.267,347.905z M238.159,87.589c0-9.838,8.003-17.842,17.841-17.842s17.841,8.004,17.841,17.842
		S265.838,105.43,256,105.43S238.159,97.427,238.159,87.589z M247.553,124.468c2.718,0.623,5.543,0.962,8.447,0.962
		s5.729-0.34,8.447-0.962l119.228,221.79h-255.35L247.553,124.468z M412.318,426.579c0,8.705-7.082,15.787-15.787,15.787H115.469
		c-8.705,0-15.787-7.082-15.787-15.787v-44.535c0-8.705,7.082-15.787,15.787-15.787h281.063c8.705,0,15.787,7.082,15.787,15.787
		V426.579z"/>
</g>
</svg>
