<?xml version="1.0" encoding="iso-8859-1"?>
<!-- Generator: Adobe Illustrator 16.0.0, SVG Export Plug-In . SVG Version: 6.00 Build 0)  -->
<!DOCTYPE svg PUBLIC "-//W3C//DTD SVG 1.1//EN" "http://www.w3.org/Graphics/SVG/1.1/DTD/svg11.dtd">
<svg version="1.1" xmlns="http://www.w3.org/2000/svg" xmlns:xlink="http://www.w3.org/1999/xlink" x="0px" y="0px" width="512px"
	 height="512px" viewBox="0 0 512 512" style="enable-background:new 0 0 512 512;" xml:space="preserve">
<g id="Artwork">
</g>
<g id="Layer_2">
	<g>
		<path d="M393.055,120.743h-47.197v-3.816c0-49.748-40.473-90.221-90.22-90.221s-90.22,40.473-90.22,90.221v3.816H118.22
			c-5.523,0-10,4.477-10,10v344.551c0,5.523,4.477,10,10,10h274.835c5.523,0,10-4.477,10-10V130.743
			C403.055,125.22,398.578,120.743,393.055,120.743z M185.417,116.927c0-38.72,31.5-70.221,70.22-70.221s70.22,31.501,70.22,70.221
			v3.816h-140.44V116.927z M185.417,140.743h140.44v20.936h-140.44V140.743z M383.055,465.294H128.22V140.743h37.197v30.936
			c0,5.523,4.477,10,10,10h160.44c5.523,0,10-4.477,10-10v-30.936h37.197V465.294z"/>
		<path d="M343.527,368.755l-25.804-14.898l12.416-3.327c2.934-0.786,4.675-3.802,3.889-6.736c-0.787-2.935-3.803-4.677-6.736-3.889
			l-22.952,6.15l-12.962-21.747l12.903-21.648l23.011,6.165c0.477,0.128,0.956,0.189,1.427,0.189c2.428,0,4.651-1.621,5.309-4.078
			c0.786-2.934-0.955-5.95-3.889-6.736l-12.421-3.328l2.029-1.171c0.001-0.001,0.002-0.002,0.004-0.002l23.774-13.727
			c2.631-1.519,3.532-4.883,2.013-7.513c-1.519-2.63-4.881-3.532-7.513-2.013l-25.804,14.898l3.327-12.416
			c0.786-2.934-0.955-5.95-3.889-6.736c-2.931-0.785-5.95,0.955-6.736,3.889l-6.137,22.905l-25.277,0.051l-12.297-21.7
			l16.796-16.796c2.148-2.148,2.148-5.63,0-7.778c-2.148-2.147-5.631-2.147-7.778,0l-9.093,9.093v-2.344v-27.457
			c0-3.038-2.462-5.5-5.5-5.5s-5.5,2.462-5.5,5.5v27.457v2.34l-9.089-9.089c-2.148-2.147-5.63-2.147-7.778,0
			c-2.148,2.148-2.148,5.63,0,7.778l16.796,16.796l-12.297,21.7l-25.278-0.051l-6.137-22.905c-0.786-2.935-3.805-4.678-6.736-3.889
			c-2.934,0.786-4.675,3.802-3.889,6.736l3.328,12.42l-2.029-1.171c-0.002-0.001-0.003-0.001-0.005-0.002l-23.773-13.725
			c-2.63-1.518-5.995-0.617-7.513,2.013c-1.519,2.631-0.617,5.995,2.013,7.513l25.804,14.898l-12.416,3.327
			c-2.934,0.786-4.675,3.802-3.889,6.736c0.658,2.458,2.88,4.078,5.309,4.078c0.471,0,0.95-0.061,1.427-0.189l23.011-6.165
			l12.903,21.648l-12.962,21.747l-22.952-6.15c-2.932-0.788-5.95,0.955-6.736,3.889c-0.786,2.934,0.955,5.95,3.889,6.736
			l12.421,3.328l-25.808,14.9c-2.63,1.519-3.532,4.882-2.013,7.513c1.019,1.765,2.867,2.751,4.769,2.751
			c0.933,0,1.878-0.238,2.745-0.738l23.776-13.727c0,0,0.001,0,0.002-0.001l2.026-1.169l-3.327,12.416
			c-0.786,2.934,0.955,5.95,3.889,6.736c0.477,0.128,0.956,0.189,1.427,0.189c2.428,0,4.651-1.621,5.309-4.078l6.168-23.019
			l25.247-0.065l12.338,21.787l-16.837,16.837c-2.148,2.148-2.148,5.63,0,7.778c2.148,2.147,5.63,2.147,7.778,0l9.093-9.093v2.344
			v27.457c0,3.038,2.462,5.5,5.5,5.5s5.5-2.462,5.5-5.5v-27.457v-2.34l9.089,9.089c1.074,1.074,2.481,1.611,3.889,1.611
			c1.407,0,2.815-0.537,3.889-1.611c2.148-2.148,2.148-5.63,0-7.778l-16.837-16.837l12.338-21.787l25.247,0.065l6.168,23.019
			c0.658,2.458,2.88,4.078,5.309,4.078c0.471,0,0.95-0.061,1.427-0.189c2.934-0.786,4.675-3.802,3.889-6.736l-3.328-12.42
			l2.029,1.171c0.002,0.001,0.005,0.002,0.008,0.004l23.771,13.724c0.866,0.5,1.812,0.738,2.745,0.738
			c1.901,0,3.75-0.987,4.769-2.751C347.059,373.637,346.157,370.273,343.527,368.755z M231.024,321.493l-4.53-7.6l18.143,10.475
			l-18.25,10.537l4.637-7.779C232.058,325.39,232.058,323.228,231.024,321.493z M280.25,327.125l4.633,7.773l-18.246-10.535
			l18.146-10.477l-4.534,7.606C279.216,323.228,279.216,325.39,280.25,327.125z M270.307,304.043c0.003,0,0.007,0,0.011,0
			l9.547-0.019l-18.73,10.813v-21.322l4.386,7.74C266.499,302.979,268.326,304.043,270.307,304.043z M240.957,304.043
			c0.004,0,0.007,0,0.011,0c1.98,0,3.809-1.065,4.785-2.789l4.382-7.732v21.317l-18.733-10.815L240.957,304.043z M240.968,344.557
			c-0.004,0-0.009,0-0.014,0l-9.328,0.024l18.513-10.688v21.197l-4.385-7.743C244.778,345.623,242.949,344.557,240.968,344.557z
			 M270.321,344.557c-0.005,0-0.009,0-0.014,0c-1.981,0-3.81,1.065-4.786,2.79l-4.382,7.737v-21.192l18.516,10.69L270.321,344.557z"
			/>
	</g>
</g>
</svg>
