<?xml version="1.0" encoding="iso-8859-1"?>
<!-- Generator: Adobe Illustrator 16.0.0, SVG Export Plug-In . SVG Version: 6.00 Build 0)  -->
<!DOCTYPE svg PUBLIC "-//W3C//DTD SVG 1.1//EN" "http://www.w3.org/Graphics/SVG/1.1/DTD/svg11.dtd">
<svg version="1.1" xmlns="http://www.w3.org/2000/svg" xmlns:xlink="http://www.w3.org/1999/xlink" x="0px" y="0px" width="512px"
	 height="512px" viewBox="0 0 512 512" style="enable-background:new 0 0 512 512;" xml:space="preserve">
<g id="Artwork">
</g>
<g id="Layer_3">
	<path d="M311.215,237.933c0-0.01,0.001-0.02,0.001-0.029v-22.241c0-3.684-2.026-7.069-5.272-8.811
		c-6.549-3.514-13.116-6.321-19.695-8.446c1.027-3.152,1.568-6.473,1.568-9.86c0-3.368-0.53-6.614-1.505-9.664
		c15.014,6.29,27.484,9.425,37.65,9.425c5.17,0,9.748-0.809,13.763-2.42c7.846-3.149,13.257-9.26,15.726-17.709l5.852-18.107
		c3.496-9.749,7.11-19.829,8.032-29.62c1.994-21.158-9.712-31.141-16.868-35.21c-5.959-3.387-12.821-5.105-20.394-5.105
		c-14.853,0-33.107,6.871-54.256,20.42c-3.512,2.25-6.814,4.483-9.818,6.586V35.167c0-5.523-4.477-10-10-10s-10,4.477-10,10v71.976
		c-3.004-2.104-6.306-4.336-9.818-6.587c-21.148-13.55-39.403-20.42-54.256-20.42c-7.573,0-14.434,1.718-20.395,5.105
		c-7.156,4.068-18.862,14.053-16.867,35.209c0.922,9.792,4.537,19.872,8.038,29.636l5.847,18.093
		c2.469,8.449,7.88,14.559,15.726,17.708c4.016,1.612,8.591,2.42,13.763,2.42c10.166,0,22.638-3.136,37.65-9.425
		c-0.975,3.05-1.505,6.295-1.505,9.664c0,3.389,0.541,6.709,1.568,9.862c-6.577,2.124-13.144,4.931-19.692,8.443
		c-3.247,1.741-5.273,5.127-5.273,8.811l-0.002,22.24c0,0.01,0.001,0.02,0.001,0.03c-44.48,20.842-75.368,66.037-75.368,118.318
		c0,72.004,58.579,130.583,130.583,130.583s130.583-58.579,130.583-130.583C386.583,303.97,355.696,258.774,311.215,237.933z
		 M330.279,167.325c-10.929,4.394-37.097-5.976-57.517-17.101c19.017-2.706,51.363-4.234,60.662,14.402
		C332.542,166.198,331.411,166.87,330.279,167.325z M286.607,117.395c22.266-14.266,35.927-17.26,43.467-17.26
		c4.064,0,7.601,0.839,10.51,2.492c5.402,3.071,7.576,8.139,6.84,15.947c-0.656,6.97-3.598,15.396-6.552,23.644
		c-12.617-10.64-30.946-13.632-47.574-13.632c-9.568,0-18.572,0.991-25.598,2.085C272.063,127.338,278.803,122.396,286.607,117.395z
		 M256,178.429c6.516,0,11.817,5.302,11.817,11.818c0,1.694-0.36,3.345-1.044,4.857c0,0-5.773-0.806-10.773-0.806
		s-10.773,0.806-10.773,0.806c-0.684-1.511-1.044-3.162-1.044-4.857C244.183,183.73,249.484,178.429,256,178.429z M171.128,142.219
		c-2.951-8.238-5.896-16.67-6.552-23.646c-0.736-7.807,1.437-12.874,6.839-15.945c2.91-1.654,6.446-2.493,10.511-2.493
		c7.54,0,21.201,2.995,43.466,17.26c7.805,5.001,14.544,9.942,18.907,13.276C225.061,127.675,191.002,125.453,171.128,142.219z
		 M181.721,167.325c-1.131-0.455-2.263-1.127-3.145-2.699c9.3-18.638,41.65-17.109,60.663-14.403
		C218.82,161.349,192.654,171.719,181.721,167.325z M220.785,221.826c23.646-11.081,46.792-11.08,70.432,0v8.669
		c-11.208-3.143-23.019-4.829-35.217-4.829c-12.198,0-24.008,1.686-35.216,4.829L220.785,221.826z M256,466.833
		c-60.976,0-110.583-49.607-110.583-110.583c0-60.977,49.607-110.584,110.583-110.584s110.583,49.608,110.583,110.584
		C366.583,417.226,316.976,466.833,256,466.833z"/>
</g>
</svg>
