<?xml version="1.0" encoding="iso-8859-1"?>
<!-- Generator: Adobe Illustrator 16.0.0, SVG Export Plug-In . SVG Version: 6.00 Build 0)  -->
<!DOCTYPE svg PUBLIC "-//W3C//DTD SVG 1.1//EN" "http://www.w3.org/Graphics/SVG/1.1/DTD/svg11.dtd">
<svg version="1.1" xmlns="http://www.w3.org/2000/svg" xmlns:xlink="http://www.w3.org/1999/xlink" x="0px" y="0px" width="512px"
	 height="512px" viewBox="0 0 512 512" style="enable-background:new 0 0 512 512;" xml:space="preserve">
<g id="Artwork">
</g>
<g id="Layer_2">
	<g>
		<g>
			<g>
				<path d="M383.063,487.43h-254.85c-2.9,0-5.623-1.398-7.311-3.755c-1.689-2.357-2.139-5.384-1.207-8.13
					c2.715-8,11.691-12.051,23.055-17.179c13.262-5.985,29.742-13.424,30.824-25.799V293.099
					c-8.098-4.924-13.445-15.117-13.445-26.882c0-1.919,0.25-4.007,0.762-6.309c-4.982-6.813-7.766-15.74-7.766-25.276
					c0-16.266,16.475-43.928,21.789-52.423c5.713-10.414,12.893-12.611,17.93-12.611c3.531,0,7.096,1.087,10.588,3.23
					c0.098,0.059,0.193,0.12,0.287,0.183c5.619,3.746,13.51,5.567,24.123,5.566c14.959,0,32.162-3.609,48.797-7.098
					c14.658-3.075,28.504-5.979,39.455-5.979c4.256,0,17.209,0,23.768,10.092c0.949,1.459,1.453,3.162,1.453,4.902v5.954
					c4.504,7.346,15.449,26.434,15.449,38.405c0,12.921-6.318,23.695-15.449,28.011v172.146c0,0.058,0,0.116-0.002,0.173
					c-0.244,12.688,11.998,20.544,28.025,29.496c11.684,6.525,22.719,12.688,22.719,23.755
					C392.057,483.403,388.029,487.43,383.063,487.43z M161.457,469.441h197.422c-15.701-8.798-35.953-20.94-35.553-44.511V245.896
					c0-4.967,4.027-8.994,8.994-8.994c2.633,0,6.455-4.694,6.455-12.049c0-5.538-7.287-20.398-14.037-30.99
					c-0.922-1.444-1.412-3.124-1.412-4.837v-4.583c-1.377-0.534-3.715-0.954-7.232-0.954c-9.086,0-22.043,2.718-35.762,5.596
					c-16.717,3.506-35.664,7.48-52.49,7.481c-14.182,0.001-25.283-2.771-33.928-8.472c-0.404-0.239-0.695-0.368-0.883-0.437
					c-0.445,0.364-1.346,1.343-2.432,3.358c-0.094,0.175-0.193,0.347-0.299,0.515c-9.535,15.196-19.188,34.881-19.188,43.102
					c0,6.75,2.246,12.971,6.006,16.639c2.467,2.405,3.342,6.008,2.254,9.277c-1.133,3.412-1.256,5.101-1.256,5.669
					c0,7.036,3.557,11.556,6.016,11.991c4.299,0.759,7.43,4.493,7.43,8.857v145.848c0,0.206-0.006,0.411-0.021,0.617
					C190.283,451.848,175.77,462.177,161.457,469.441z"/>
			</g>
		</g>
		<g>
			<g>
				<path d="M251.738,168.18c-15.484,0-28.527-4.721-37.713-13.653c-10.451-10.16-15.75-25.23-15.75-44.793
					c0-39.542,45.127-85.917,47.049-87.873c1.689-1.721,4.002-2.69,6.414-2.69l0,0c2.414,0,4.725,0.969,6.416,2.69
					c1.92,1.955,47.047,48.331,47.047,87.873c0,19.563-5.299,34.634-15.75,44.793C280.264,163.459,267.223,168.18,251.738,168.18z
					 M251.738,41.466c-13.713,15.781-35.475,45.613-35.475,68.267c0,26.846,11.936,40.458,35.475,40.458
					s35.475-13.612,35.475-40.458C287.213,87.08,265.453,57.249,251.738,41.466z"/>
			</g>
		</g>
	</g>
</g>
</svg>
