<?xml version="1.0" encoding="iso-8859-1"?>
<!-- Generator: Adobe Illustrator 16.0.0, SVG Export Plug-In . SVG Version: 6.00 Build 0)  -->
<!DOCTYPE svg PUBLIC "-//W3C//DTD SVG 1.1//EN" "http://www.w3.org/Graphics/SVG/1.1/DTD/svg11.dtd">
<svg version="1.1" xmlns="http://www.w3.org/2000/svg" xmlns:xlink="http://www.w3.org/1999/xlink" x="0px" y="0px" width="512px"
	 height="512px" viewBox="0 0 512 512" style="enable-background:new 0 0 512 512;" xml:space="preserve">
<g id="Artwork">
</g>
<g id="Layer_2">
	<path d="M412.324,438.545l-7.383-22.979c-1.342-4.174-2.777-8.421-4.391-12.982c-12.852-36.379-28.293-72.266-45.957-106.859
		c13.713-4.494,25.887-13.847,33.652-27.296c14.861-25.742,8.654-57.946-13.215-76.563c21.869-18.617,28.076-50.82,13.215-76.561
		c-8.107-14.044-21.201-24.091-36.865-28.288c-12.064-3.232-24.537-2.683-36.049,1.438c-5.193-28.241-29.977-49.712-59.695-49.712
		s-54.502,21.471-59.693,49.712c-11.514-4.12-23.984-4.67-36.051-1.438c-15.664,4.197-28.756,14.244-36.863,28.288
		c-8.109,14.043-10.264,30.404-6.066,46.068c3.232,12.06,9.941,22.583,19.26,30.492c-9.318,7.909-16.027,18.433-19.26,30.492
		c-4.197,15.664-2.043,32.025,6.066,46.068c7.543,13.067,19.406,22.668,33.639,27.321c-17.662,34.597-33.1,70.475-45.945,106.837
		c-1.615,4.572-3.051,8.818-4.389,12.981l-7.385,22.979c-1.406,4.379,0.355,9.154,4.27,11.569c3.914,2.416,8.973,1.848,12.256-1.372
		l54.123-53.113l30.209,71.519c1.584,3.754,5.25,6.11,9.207,6.11c0.615,0,1.238-0.057,1.859-0.175
		c4.627-0.874,8.018-4.856,8.141-9.563l0.725-27.538c0.57-21.72,3.066-43.569,5.434-62.079c1.535-12.021,3.217-23.404,5.09-34.491
		c7.727,3.571,16.318,5.578,25.375,5.578s17.648-2.008,25.375-5.578c1.875,11.085,3.557,22.469,5.092,34.493
		c2.365,18.508,4.861,40.357,5.432,62.078l0.725,27.537c0.123,4.707,3.514,8.689,8.141,9.563c0.623,0.118,1.244,0.175,1.861,0.175
		c3.955,0,7.621-2.356,9.207-6.11l30.207-71.519l54.125,53.113c3.283,3.222,8.342,3.787,12.254,1.372
		C411.971,447.699,413.732,442.925,412.324,438.545z M370.926,258.429c-11.225,19.439-36.172,26.124-55.619,14.897
		c-0.191-0.109-0.395-0.227-0.584-0.338c-3.035-11.499-10.35-25.744-22.105-43.083c8.459-8.107,14.266-18.952,15.979-31.102
		c32.361-2.305,43.889,1.968,47.428,4.01C375.465,214.038,382.15,238.987,370.926,258.429z M222.143,191.308
		c0-18.469,15.025-33.494,33.494-33.494s33.494,15.025,33.494,33.494s-15.025,33.494-33.494,33.494S222.143,209.776,222.143,191.308
		z M346.205,106.336c10.504,2.815,19.283,9.552,24.721,18.97c11.225,19.439,4.539,44.388-14.906,55.614
		c-0.189,0.11-0.393,0.228-0.584,0.338c-11.367-3.092-27.172-3.893-47.791-2.439c-2.885-12.012-9.828-22.454-19.301-29.797
		c14.08-28.837,23.473-36.602,26.967-38.618C324.727,104.966,335.697,103.521,346.205,106.336z M255.637,58.743
		c22.449,0,40.713,18.264,40.713,40.713c0,0.221,0,0.455-0.002,0.676c-8.301,8.243-16.836,21.407-25.828,39.804
		c-4.729-1.372-9.719-2.122-14.883-2.122c-7.377,0-14.41,1.501-20.811,4.214c-17.834-26.474-19.9-38.472-19.9-42.571
		C214.926,77.007,233.189,58.743,255.637,58.743z M140.35,125.306c5.438-9.418,14.217-16.155,24.721-18.97s21.475-1.37,30.896,4.069
		c0.191,0.11,0.395,0.229,0.586,0.339c2.994,11.352,10.154,25.374,21.643,42.406c-8.469,8.311-14.184,19.406-15.66,31.789
		c-32.223,2.281-43.73-1.969-47.283-4.021c-9.418-5.438-16.154-14.217-18.971-24.721
		C133.467,145.694,134.912,134.723,140.35,125.306z M140.35,258.427c-5.438-9.417-6.883-20.389-4.068-30.893
		c2.816-10.504,9.553-19.283,18.973-24.722c0.193-0.112,0.4-0.231,0.594-0.343c7.717,2.099,17.459,3.149,29.375,3.149
		c5.719,0,11.945-0.244,18.674-0.725c3.08,11.719,10.045,21.874,19.428,29.01c-14.268,29.449-23.785,37.36-27.361,39.425
		c-9.418,5.438-20.391,6.88-30.893,4.067C154.566,274.582,145.787,267.845,140.35,258.427z M205.334,371.367
		c-1.789,13.978-3.648,29.833-4.742,46.237l-18.291-43.303c-1.287-3.05-4.002-5.265-7.248-5.915s-6.604,0.349-8.967,2.668
		l-35.211,34.552c13.053-36.411,28.756-72.304,46.729-106.828c6.244-0.197,12.418-1.374,18.34-3.493
		c2.221,12.071,8.018,22.9,16.256,31.348C209.596,340.975,207.34,355.646,205.334,371.367z M214.926,284.272
		c0-0.221,0-0.456,0-0.677c8.455-8.393,17.148-21.881,26.305-40.78c4.588,1.284,9.416,1.986,14.406,1.986
		c7.152,0,13.977-1.422,20.219-3.979c18.4,27.113,20.494,39.323,20.494,43.454c0,22.449-18.264,40.713-40.713,40.713
		S214.926,306.726,214.926,284.272z M345.189,371.055c-2.363-2.317-5.721-3.317-8.967-2.668c-3.248,0.65-5.961,2.865-7.25,5.915
		l-18.289,43.303c-1.096-16.405-2.955-32.26-4.742-46.235c-2.008-15.725-4.264-30.398-6.865-44.736
		c8.24-8.45,14.035-19.283,16.256-31.357c5.986,2.131,12.164,3.271,18.32,3.466c17.975,34.525,33.686,70.431,46.746,106.865
		L345.189,371.055z"/>
</g>
</svg>
