<?xml version="1.0" encoding="iso-8859-1"?>
<!-- Generator: Adobe Illustrator 16.0.0, SVG Export Plug-In . SVG Version: 6.00 Build 0)  -->
<!DOCTYPE svg PUBLIC "-//W3C//DTD SVG 1.1//EN" "http://www.w3.org/Graphics/SVG/1.1/DTD/svg11.dtd">
<svg version="1.1" xmlns="http://www.w3.org/2000/svg" xmlns:xlink="http://www.w3.org/1999/xlink" x="0px" y="0px" width="512px"
	 height="512px" viewBox="0 0 512 512" style="enable-background:new 0 0 512 512;" xml:space="preserve">
<g id="Artwork">
</g>
<g id="Layer_2">
	<path d="M386.637,165.523c0-62.574-44.103-115.032-102.854-127.946c-0.141-0.036-0.285-0.063-0.427-0.093
		c-8.938-1.933-18.21-2.961-27.718-2.961c-72.234,0-131,58.766-131,131c0,68.87,53.42,125.496,121,130.622v171.333
		c0,5.523,4.477,10,10,10s10-4.477,10-10V296.145c30.356-2.302,57.85-15.002,78.934-34.53c0.585-0.438,1.121-0.94,1.599-1.498
		C371.093,236.255,386.637,202.671,386.637,165.523z M366.637,165.523c0,22.416-6.686,43.296-18.158,60.766
		c-2.092-13.174-7.257-24.887-15.516-34.989c-21.662-26.497-57.962-33.494-71.488-35.226c-5.053-8.549-16.343-31.06-11.47-54.683
		c3.464-16.791,14.59-31.385,33.076-43.432C331.057,70.206,366.637,113.787,366.637,165.523z M255.094,54.53
		c-13.138,12.448-21.423,26.845-24.715,43.012c-6.145,30.174,7.2,57.461,13.784,68.583c-5.6,10.44-21.268,35.622-45.963,44.149
		c-14.278,4.932-29.751,3.391-46.033-4.569c-4.858-12.466-7.53-26.018-7.53-40.182C144.637,104.499,194.138,54.824,255.094,54.53z
		 M166.555,231.671c4.947,0.978,9.851,1.476,14.702,1.476c7.973,0,15.807-1.322,23.471-3.968
		c30.684-10.596,49.458-39.615,56.686-52.896c12.488,1.926,40.256,8.268,56.125,27.749c9.504,11.667,13.389,26.663,11.571,44.617
		c-19.589,17.334-45.321,27.875-73.473,27.875C219.198,276.523,186.805,258.871,166.555,231.671z"/>
</g>
</svg>
