<?xml version="1.0" encoding="iso-8859-1"?>
<!-- Generator: Adobe Illustrator 16.0.0, SVG Export Plug-In . SVG Version: 6.00 Build 0)  -->
<!DOCTYPE svg PUBLIC "-//W3C//DTD SVG 1.1//EN" "http://www.w3.org/Graphics/SVG/1.1/DTD/svg11.dtd">
<svg version="1.1" xmlns="http://www.w3.org/2000/svg" xmlns:xlink="http://www.w3.org/1999/xlink" x="0px" y="0px" width="512px"
	 height="512px" viewBox="0 0 512 512" style="enable-background:new 0 0 512 512;" xml:space="preserve">
<g id="Artwork">
</g>
<g id="Layer_3">
	<path d="M436.284,314.998c-5.946-3.434-12.703-5.248-19.539-5.248c-10.503,0-20.462,4.254-27.718,11.507l-19.415-11.209
		l24.079-6.453c5.334-1.43,8.5-6.913,7.071-12.248c-1.43-5.335-6.914-8.501-12.248-7.07l-43.396,11.629l-30.339-17.517l9.878-17.109
		c1.787-3.094,1.787-6.906,0-10l-10.12-17.528l30.581-17.656l43.398,11.627c0.867,0.232,1.737,0.344,2.594,0.344
		c4.415-0.001,8.456-2.947,9.653-7.415c1.429-5.335-1.736-10.818-7.071-12.247l-24.079-6.451l19.38-11.189
		c7.266,7.324,17.273,11.628,27.833,11.628c6.836,0,13.593-1.814,19.538-5.247c9.052-5.226,15.527-13.664,18.232-23.76
		c2.706-10.097,1.317-20.642-3.909-29.692c-6.969-12.071-19.964-19.57-33.914-19.57c-6.836,0-13.593,1.814-19.538,5.248
		c-9.052,5.225-15.527,13.663-18.232,23.76c-1.812,6.762-1.778,13.724,0.006,20.305l-19.398,11.199l6.452-24.08
		c1.43-5.335-1.736-10.817-7.071-12.247c-5.333-1.431-10.818,1.736-12.247,7.071l-11.628,43.397l-30.58,17.656l-9.838-17.04
		c-1.786-3.094-5.087-5-8.66-5H266v-35.521l31.769-31.771c3.905-3.905,3.905-10.237,0-14.143c-3.905-3.904-10.237-3.904-14.142,0
		L266,130.583v-22.36c16.788-4.402,29.21-19.701,29.21-37.852c0-21.576-17.553-39.129-39.129-39.129s-39.129,17.553-39.129,39.129
		c0,18.091,12.343,33.347,29.048,37.806v22.407l-17.627-17.626c-3.905-3.904-10.237-3.904-14.142,0
		c-3.905,3.905-3.905,10.237,0,14.143L246,158.869v35.521h-19.876c-3.573,0-6.874,1.906-8.66,5l-9.878,17.109l-30.702-17.726
		l-11.63-43.398c-1.43-5.335-6.913-8.502-12.248-7.07c-5.334,1.43-8.5,6.913-7.071,12.248l6.453,24.078l-19.358-11.177
		c1.828-6.629,1.875-13.649,0.048-20.468c-2.706-10.096-9.181-18.534-18.231-23.759c-5.946-3.434-12.703-5.248-19.539-5.248
		c-13.949,0-26.944,7.499-33.913,19.57c-5.226,9.052-6.614,19.596-3.909,29.691c2.705,10.097,9.18,18.535,18.231,23.76
		c5.946,3.434,12.703,5.248,19.539,5.248c10.503,0,20.462-4.254,27.718-11.507l19.415,11.209l-24.079,6.453
		c-5.334,1.43-8.5,6.913-7.071,12.247c1.197,4.469,5.237,7.415,9.653,7.415c0.856,0,1.728-0.111,2.595-0.344l43.397-11.629
		l30.702,17.726l-10.08,17.459c-1.787,3.094-1.787,6.906,0,10l9.838,17.039l-30.461,17.587l-43.398-11.627
		c-5.335-1.431-10.818,1.735-12.247,7.071c-1.429,5.335,1.737,10.818,7.071,12.247l24.079,6.451l-19.381,11.189
		c-7.266-7.324-17.272-11.628-27.833-11.628c-6.836,0-13.592,1.814-19.538,5.247c-9.052,5.226-15.527,13.664-18.232,23.76
		c-2.706,10.097-1.317,20.642,3.909,29.692c6.969,12.071,19.964,19.57,33.914,19.57c6.836,0,13.593-1.814,19.538-5.248
		c9.052-5.225,15.527-13.663,18.232-23.759c1.812-6.763,1.778-13.724-0.006-20.305l19.398-11.2l-6.452,24.08
		c-1.43,5.334,1.736,10.817,7.071,12.247c0.867,0.232,1.738,0.344,2.595,0.344c4.415,0,8.456-2.947,9.653-7.415l11.628-43.397
		l30.459-17.587l10.121,17.529c1.786,3.094,5.087,5,8.66,5H246l0,34.964l-31.769,31.77c-3.905,3.905-3.905,10.237,0,14.143
		c1.953,1.952,4.512,2.929,7.071,2.929s5.119-0.977,7.071-2.929L246,381.417l0,22.352c-6.656,1.731-12.76,5.201-17.751,10.191
		c-7.39,7.391-11.46,17.217-11.46,27.668c0,10.452,4.069,20.279,11.46,27.67c7.391,7.39,17.217,11.46,27.669,11.46
		c21.576,0,39.129-17.553,39.13-39.129c0-18.091-12.343-33.347-29.048-37.806l0-22.407l17.626,17.626
		c3.905,3.904,10.237,3.904,14.143,0c3.905-3.905,3.905-10.237,0-14.143L266,353.13l0-34.962h20.039c3.573,0,6.874-1.906,8.66-5
		l10.08-17.459l30.339,17.517l11.629,43.397c1.197,4.469,5.237,7.415,9.653,7.415c0.856-0.001,1.728-0.111,2.595-0.344
		c5.334-1.43,8.5-6.913,7.071-12.247l-6.452-24.079l19.357,11.176c-1.828,6.629-1.875,13.65-0.048,20.469
		c2.705,10.096,9.18,18.534,18.231,23.759c5.946,3.434,12.703,5.248,19.539,5.248c13.95,0,26.944-7.499,33.914-19.57
		c5.226-9.051,6.614-19.596,3.909-29.692C451.81,328.661,445.335,320.223,436.284,314.998z M398.322,158.305
		c1.323-4.936,4.488-9.061,8.914-11.615c2.91-1.681,6.208-2.568,9.538-2.568c6.827,0,13.185,3.667,16.593,9.57
		c2.555,4.425,3.233,9.58,1.911,14.516s-4.488,9.061-8.914,11.615c-2.91,1.681-6.208,2.568-9.538,2.568
		c-6.827,0-13.185-3.667-16.593-9.57C397.678,168.396,397,163.24,398.322,158.305z M236.952,70.371
		c0-10.548,8.582-19.129,19.129-19.129s19.129,8.581,19.129,19.129S266.629,89.5,256.081,89.5S236.952,80.919,236.952,70.371z
		 M95.255,182.25c-3.33,0-6.628-0.888-9.539-2.568c-4.425-2.555-7.59-6.68-8.912-11.615c-1.323-4.936-0.644-10.091,1.911-14.516
		c3.408-5.903,9.766-9.57,16.593-9.57c3.33,0,6.628,0.888,9.539,2.568c4.425,2.555,7.59,6.68,8.913,11.615
		c1.323,4.936,0.644,10.091-1.911,14.516C108.44,178.583,102.082,182.25,95.255,182.25z M113.678,353.695
		c-1.323,4.936-4.488,9.061-8.914,11.615c-2.91,1.681-6.208,2.568-9.538,2.568c-6.827,0-13.185-3.667-16.593-9.57
		c-2.555-4.425-3.233-9.58-1.911-14.516s4.488-9.061,8.914-11.615c2.91-1.681,6.208-2.568,9.538-2.568
		c6.827,0,13.185,3.667,16.593,9.57C114.322,343.604,115,348.76,113.678,353.695z M275.049,441.629
		c0,10.548-8.582,19.129-19.13,19.129c-5.11,0-9.914-1.989-13.527-5.603s-5.603-8.416-5.602-13.526c0-5.11,1.989-9.913,5.602-13.526
		s8.417-5.603,13.527-5.603C266.467,422.5,275.048,431.081,275.049,441.629z M280.265,298.168h-48.368l-24.185-41.889l24.185-41.889
		h48.368l24.185,41.889L280.265,298.168z M433.286,358.449c-3.408,5.903-9.766,9.57-16.593,9.57c-3.33,0-6.628-0.888-9.539-2.568
		c-4.425-2.555-7.59-6.68-8.913-11.615c-1.322-4.936-0.644-10.091,1.911-14.516c3.408-5.903,9.766-9.57,16.593-9.57
		c3.33,0,6.628,0.888,9.539,2.568c4.425,2.555,7.59,6.68,8.913,11.615C436.519,348.869,435.84,354.024,433.286,358.449z"/>
</g>
</svg>
