<?xml version="1.0" encoding="iso-8859-1"?>
<!-- Generator: Adobe Illustrator 16.0.0, SVG Export Plug-In . SVG Version: 6.00 Build 0)  -->
<!DOCTYPE svg PUBLIC "-//W3C//DTD SVG 1.1//EN" "http://www.w3.org/Graphics/SVG/1.1/DTD/svg11.dtd">
<svg version="1.1" xmlns="http://www.w3.org/2000/svg" xmlns:xlink="http://www.w3.org/1999/xlink" x="0px" y="0px" width="512px"
	 height="512px" viewBox="0 0 512 512" style="enable-background:new 0 0 512 512;" xml:space="preserve">
<g id="Artwork">
</g>
<g id="Layer_2">
	<g>
		<path d="M186.077,257.314c-2.505,4.922-0.546,10.943,4.376,13.448c4.921,2.505,10.942,0.547,13.448-4.377
			c14.018-27.541,14.943-56.206,3.093-79.189c18.551-8.258,34.557-23.829,46.055-45.021c12.406,20.67,28.998,35.461,47.961,42.882
			c-5.104,10.779-7.506,22.497-7.006,34.488c0.768,18.415,8.143,38.414,20.234,54.869c1.961,2.667,4.994,4.079,8.066,4.079
			c2.057,0,4.131-0.631,5.914-1.942c4.451-3.27,5.408-9.529,2.137-13.979c-9.797-13.331-15.762-29.317-16.369-43.859
			c-0.502-12.024,3.033-23.711,10.219-33.795c1.965-2.758,2.402-6.322,1.16-9.473s-3.994-5.457-7.313-6.131
			c-27.566-5.599-43.766-29.318-50.967-42.955c-0.449-0.852-3.816-7.45-5.969-11.678c-1.783-3.5-5.433-5.627-9.375-5.45
			c-3.924,0.182-7.378,2.645-8.829,6.294c-1.836,4.619-5.186,12.792-6.357,15.06c-6.599,12.784-21.507,35.192-47.209,41.63
			c-3.285,0.822-5.93,3.251-7.029,6.454c-1.099,3.202-0.503,6.744,1.584,9.41C204.366,214.218,192.24,245.205,186.077,257.314z"/>
		<path d="M484.771,336.939c-4.047-2.888-11.184-8.094-13.104-9.771c-10.838-9.463-29.035-29.294-29.146-55.788
			c-0.014-3.386-1.74-6.535-4.588-8.367s-6.43-2.101-9.516-0.71c-22.199,9.994-48.637,3.603-70.725-17.092
			c-3.477-3.259-6.1-6.045-8.248-8.768c-3.424-4.335-9.713-5.074-14.047-1.651s-5.072,9.711-1.65,14.046
			c2.783,3.524,6.047,7.01,10.271,10.968c24.205,22.68,53.166,31.597,79.742,25.155c3.592,19.978,14.887,39.23,32.711,55.452
			c-23.035,7.11-41.361,19.688-53.098,36.329c-9.25-7.533-20.055-12.664-31.816-15.042c-20.406-4.129-44.723-0.502-65.049,9.699
			c-4.938,2.478-6.93,8.487-4.453,13.423c2.479,4.937,8.49,6.93,13.424,4.452c16.461-8.263,35.945-11.243,52.113-7.971
			c11.795,2.384,22.299,8.607,30.375,17.996c1.914,2.224,4.689,3.479,7.58,3.479c0.445,0,0.895-0.03,1.342-0.091
			c3.355-0.453,6.254-2.574,7.701-5.636c12.02-25.43,38.924-35.494,53.883-39.229c0.936-0.233,8.148-1.926,12.768-3.008
			c3.826-0.895,6.771-3.946,7.533-7.8C489.534,343.163,487.97,339.221,484.771,336.939z"/>
		<path d="M205.492,371.4c-20.327-10.201-44.645-13.828-65.047-9.699c-11.765,2.378-22.569,7.509-31.818,15.042
			c-11.735-16.641-30.061-29.218-53.098-36.329c17.825-16.223,29.118-35.475,32.709-55.452c26.58,6.441,55.539-2.476,79.743-25.155
			c4.224-3.958,7.488-7.443,10.271-10.968c3.423-4.335,2.684-10.623-1.651-14.046c-4.335-3.423-10.623-2.683-14.045,1.651
			c-2.15,2.723-4.771,5.509-8.25,8.768c-22.087,20.695-48.527,27.082-70.723,17.092c-3.088-1.39-6.669-1.123-9.517,0.71
			c-2.848,1.832-4.574,4.981-4.588,8.367c-0.11,26.494-18.309,46.325-29.147,55.789c-1.918,1.676-9.055,6.882-13.103,9.77
			c-3.198,2.281-4.764,6.224-4.003,10.077s3.707,6.905,7.532,7.8c4.62,1.082,11.833,2.774,12.761,3.006
			c14.967,3.736,41.87,13.801,53.891,39.23c1.447,3.062,4.345,5.183,7.701,5.636c0.448,0.061,0.896,0.091,1.341,0.091
			c2.89,0,5.667-1.255,7.58-3.479c8.077-9.389,18.581-15.612,30.377-17.997c16.169-3.271,35.649-0.291,52.111,7.972
			c4.936,2.477,10.946,0.484,13.423-4.452C212.421,379.888,210.428,373.878,205.492,371.4z"/>
		<path d="M295.446,329.03c5.342-6.569,8.283-14.852,8.283-23.322c0-20.398-16.598-36.994-36.996-36.994
			c-13.72,0-26.043,7.469-32.47,19.318c-4.137-1.571-8.595-2.424-13.215-2.424c-20.397,0-36.992,16.595-36.992,36.993
			s16.595,36.995,36.992,36.995c2.062,0,4.502-0.222,6.105-0.443c5.8,12.861,18.734,21.838,33.732,21.838
			c20.398,0,36.996-16.596,36.996-36.995c0-5.114-1.045-9.989-2.93-14.424C295.12,329.395,295.29,329.223,295.446,329.03z
			 M224.155,339.573c-0.501,0.061-2.041,0.023-3.107,0.023c-9.37,0-16.992-7.624-16.992-16.995c0-9.37,7.623-16.993,16.992-16.993
			c6.518,0,12.362,3.637,15.251,9.492c0.148,0.301,0.311,0.59,0.484,0.868C229.942,321.86,225.27,330.151,224.155,339.573z
			 M260.886,360.991c-9.369,0-16.991-7.624-16.991-16.995c0-9.37,7.622-16.993,16.991-16.993c9.371,0,16.996,7.623,16.996,16.993
			C277.882,353.367,270.257,360.991,260.886,360.991z M281.819,313.517c-5.957-4.104-13.168-6.514-20.934-6.514
			c-2.094,0-4.142,0.184-6.141,0.519c-0.143-0.429-0.306-0.854-0.511-1.271c-1.054-2.136-2.303-4.122-3.696-5.972l0.449-0.956
			c2.617-6.444,8.797-10.608,15.747-10.608c9.371,0,16.996,7.623,16.996,16.994C283.729,308.479,283.067,311.125,281.819,313.517z"
			/>
	</g>
</g>
</svg>
