<?xml version="1.0" encoding="iso-8859-1"?>
<!-- Generator: Adobe Illustrator 16.0.0, SVG Export Plug-In . SVG Version: 6.00 Build 0)  -->
<!DOCTYPE svg PUBLIC "-//W3C//DTD SVG 1.1//EN" "http://www.w3.org/Graphics/SVG/1.1/DTD/svg11.dtd">
<svg version="1.1" xmlns="http://www.w3.org/2000/svg" xmlns:xlink="http://www.w3.org/1999/xlink" x="0px" y="0px" width="512px"
	 height="512px" viewBox="0 0 512 512" style="enable-background:new 0 0 512 512;" xml:space="preserve">
<g id="Artwork">
</g>
<g id="Layer_2">
	<path d="M444.048,395.269l-26.828-87.239c11.123-18.611,13.854-40.827,7.436-61.704L377.849,94.122
		c-4.908-15.966-14.627-29.585-28.104-39.386c-13.021-9.471-29.02-14.687-45.049-14.687c-7.611,0-15.189,1.144-22.525,3.399
		L165.128,79.441c-40.349,12.408-63.08,55.329-50.672,95.678l25.532,83.025c-17.226-11.124-28.005-16.175-37.815-16.175
		c-17.518,0-25.715,16.31-32.61,33.014c-3.276,7.936-2.631,16.707,1.916,26.07c15.851,32.637,81.184,70.171,121.345,83.104
		l24.827,80.732c0.779,2.535,2.534,4.656,4.878,5.897c1.455,0.771,3.063,1.163,4.681,1.163c0.987,0,1.978-0.146,2.939-0.441
		l207.281-63.742C442.706,406.143,445.671,400.548,444.048,395.269z M194.377,363.563c-36.729-13.064-92.911-46.543-104.908-71.246
		c-1.946-4.006-2.424-7.271-1.42-9.702c7.489-18.144,11.214-20.645,14.123-20.645c8.196,0,25.9,11.846,50.015,28.581
		c3.503,2.431,8.161,2.373,11.603-0.143c3.442-2.517,4.91-6.938,3.657-11.013L133.572,169.24
		c-9.167-29.808,7.626-61.516,37.435-70.682L288.05,62.566c5.43-1.67,11.031-2.517,16.646-2.517
		c24.973,0,46.688,16.055,54.035,39.951l46.807,152.203c5.102,16.59,2.375,34.331-7.48,48.674l-1.066,1.636l-201.757,60.743
		C194.94,363.346,194.656,363.45,194.377,363.563z M233.827,449.452l-21.652-70.409l188.506-56.754l21.311,69.3L233.827,449.452z"/>
</g>
</svg>
