<?xml version="1.0" encoding="iso-8859-1"?>
<!-- Generator: Adobe Illustrator 16.0.0, SVG Export Plug-In . SVG Version: 6.00 Build 0)  -->
<!DOCTYPE svg PUBLIC "-//W3C//DTD SVG 1.1//EN" "http://www.w3.org/Graphics/SVG/1.1/DTD/svg11.dtd">
<svg version="1.1" xmlns="http://www.w3.org/2000/svg" xmlns:xlink="http://www.w3.org/1999/xlink" x="0px" y="0px" width="512px"
	 height="512px" viewBox="0 0 512 512" style="enable-background:new 0 0 512 512;" xml:space="preserve">
<g id="Artwork">
</g>
<g id="Layer_2">
	<g>
		<path d="M487.059,203.088c-1.178-3.62-4.307-6.258-8.072-6.806l-148.133-21.526L264.605,40.524
			c-1.686-3.413-5.162-5.574-8.968-5.574c-3.807,0-7.283,2.161-8.967,5.574l-66.248,134.232L32.289,196.282
			c-3.767,0.547-6.896,3.186-8.073,6.806s-0.195,7.594,2.531,10.251l107.191,104.486L108.633,465.36
			c-0.644,3.751,0.898,7.543,3.978,9.781c3.079,2.236,7.162,2.532,10.531,0.761l132.495-69.657l132.496,69.657
			c1.463,0.769,3.061,1.148,4.652,1.148c2.074,0,4.137-0.644,5.879-1.91c3.08-2.237,4.623-6.029,3.979-9.781l-25.305-147.535
			l107.189-104.486C487.254,210.682,488.234,206.708,487.059,203.088z M359.613,307.173c-2.357,2.297-3.432,5.607-2.877,8.851
			l22.77,132.746l-119.215-62.675c-1.457-0.766-3.055-1.148-4.654-1.148c-1.599,0-3.197,0.383-4.653,1.148L131.771,448.77
			l22.769-132.746c0.557-3.244-0.519-6.554-2.876-8.851l-96.447-94.012l133.285-19.368c3.257-0.473,6.073-2.519,7.529-5.47
			l59.607-120.777l59.607,120.777c1.457,2.951,4.273,4.997,7.529,5.47l133.285,19.368L359.613,307.173z"/>
		<path d="M305.91,224.492c4.07-4.277,5.051-10.708,2.439-16.003l-38.383-77.847c-2.361-4.79-7.355-7.885-12.723-7.885
			c-1.067,0-2.134,0.122-3.173,0.364c-6.465,1.507-10.981,7.169-10.983,13.774l0.012,93.142l-20.968-22.056
			c-3.138-3.298-7.804-4.923-12.375-4.234l-81.646,12.402c-6.72,1.021-11.771,6.693-12.009,13.486
			c-0.238,6.795,4.403,12.807,11.036,14.296l93.715,21.04l-40.875,21.891c-3.881,2.077-6.53,5.757-7.269,10.098l-14.426,84.83
			c-1.119,6.58,2.582,13.117,8.793,15.543c1.634,0.639,3.355,0.962,5.117,0.962c4.827,0,9.271-2.401,11.892-6.427l59.017-90.807
			l0,47.982c0,5.268,2.896,10.064,7.561,12.518l79.075,41.572c2.021,1.064,4.299,1.627,6.582,1.627c0.021,0,0.043,0,0.064,0
			c0.02,0,0.109-0.001,0.129-0.001c7.703-0.094,13.973-6.438,13.973-14.143c0-2.974-0.91-5.813-2.635-8.223l-57.795-90.116
			l29.813,15.675c2.004,1.053,4.271,1.609,6.557,1.609c3.684,0,7.293-1.46,9.896-4.001l63.102-61.508
			c4.48-4.37,5.551-11.275,2.602-16.789c-2.463-4.613-7.248-7.479-12.49-7.479c-0.982,0-1.967,0.104-2.92,0.306l-95.828,20.306
			L305.91,224.492z M161.922,231.242l47.822-7.264l21.755,22.885L161.922,231.242z M182.749,357.222l9.197-54.083l39.808-21.319
			L182.749,357.222z M288.604,213.667l-25.502,26.814l-0.01-78.557L288.604,213.667z M319.422,375.113l-56.32-29.609v-58.208
			L319.422,375.113z M370.979,243.846l-45.572,44.421l-47.127-24.778L370.979,243.846z"/>
	</g>
</g>
</svg>
