<?xml version="1.0" encoding="iso-8859-1"?>
<!-- Generator: Adobe Illustrator 16.0.0, SVG Export Plug-In . SVG Version: 6.00 Build 0)  -->
<!DOCTYPE svg PUBLIC "-//W3C//DTD SVG 1.1//EN" "http://www.w3.org/Graphics/SVG/1.1/DTD/svg11.dtd">
<svg version="1.1" xmlns="http://www.w3.org/2000/svg" xmlns:xlink="http://www.w3.org/1999/xlink" x="0px" y="0px" width="512px"
	 height="512px" viewBox="0 0 512 512" style="enable-background:new 0 0 512 512;" xml:space="preserve">
<g id="Artwork">
</g>
<g id="Layer_2">
	<g>
		<path d="M320.079,396.386l-17.092-44.102c-0.105-60.213-5.379-101.189-17.053-132.675c-7.398-19.952-17.193-35.471-29.943-47.443
			c-11.893-11.167-26.352-18.977-43.066-23.28c-0.422-18.394-15.516-33.226-34.01-33.226c-18.482,0-33.568,14.817-34.008,33.196
			c-16.682,4.267-31.1,12.008-42.953,23.078c-12.709,11.87-22.477,27.271-29.855,47.083
			c-11.545,30.999-16.875,71.681-17.236,131.731l-17.148,45.74c-1.15,3.071-0.723,6.511,1.145,9.207
			c1.869,2.695,4.939,4.304,8.219,4.304h263.678c3.299,0,6.387-1.627,8.25-4.349C320.87,402.928,321.272,399.462,320.079,396.386z
			 M61.507,390l12.518-33.388c0.527-1.21,0.822-2.546,0.828-3.949c0.254-58.593,5.186-97.658,15.988-126.664
			c12.912-34.664,33.861-53.495,65.93-59.263c5.098-0.917,8.176-5.612,8.189-10.734l-0.063-6.323
			c0-7.729,6.289-14.018,14.018-14.018c7.73,0,14.018,6.288,14.018,14.018l-0.064,6.345c-0.192,5.35,3.088,9.804,8.178,10.726
			c58.203,10.548,81.943,64.844,81.943,187.408c0,1.236,0.23,2.461,0.676,3.614L296.155,390H61.507z"/>
		<path d="M178.915,446.894c12.982,0,23.506-10.524,23.506-23.507h-47.014C155.407,436.37,165.931,446.894,178.915,446.894z"/>
		<path d="M472.946,299.31l-28.223-37.957c-16.145-58.008-32.143-96.098-51.785-123.335c-12.445-17.26-26.021-29.608-41.5-37.751
			c-14.438-7.595-30.43-11.264-47.711-10.965c-5.311-17.615-23.813-27.886-41.631-22.964c-8.76,2.42-16.053,8.107-20.535,16.012
			c-4.346,7.667-5.545,16.532-3.402,25.051c-2.543,1.458-5.006,2.998-7.369,4.612c-4.563,3.114-5.736,9.336-2.621,13.897
			c3.113,4.562,9.336,5.734,13.896,2.621c3.807-2.598,7.941-4.976,12.293-7.065c4.68-2.247,6.645-7.42,5.023-12.555
			c-0.131-0.416-1.738-6.048-1.738-6.048c-0.996-3.61-0.529-7.392,1.316-10.649c1.848-3.257,4.852-5.6,8.465-6.598
			c7.447-2.058,15.184,2.329,17.244,9.777c0,0,1.451,5.412,1.629,6.131c1.24,5.022,5.59,8.629,10.738,8.161
			c58.912-5.335,96.258,40.671,128.91,158.804c0.33,1.191,0.877,2.311,1.615,3.303l20.623,27.737l-119.191,32.945
			c-5.322,1.472-8.445,6.979-6.975,12.303c1.227,4.432,5.248,7.338,9.633,7.338c0.883,0,1.779-0.118,2.67-0.364l133.264-36.835
			c3.18-0.879,5.723-3.27,6.795-6.39C475.45,305.405,474.915,301.958,472.946,299.31z"/>
		<path d="M336.409,360.817l8.467,21.85c0.938-0.141,1.877-0.319,2.813-0.578c12.514-3.459,19.854-16.407,16.396-28.921
			L336.409,360.817z"/>
	</g>
</g>
</svg>
