<?xml version="1.0" encoding="iso-8859-1"?>
<!-- Generator: Adobe Illustrator 16.0.0, SVG Export Plug-In . SVG Version: 6.00 Build 0)  -->
<!DOCTYPE svg PUBLIC "-//W3C//DTD SVG 1.1//EN" "http://www.w3.org/Graphics/SVG/1.1/DTD/svg11.dtd">
<svg version="1.1" xmlns="http://www.w3.org/2000/svg" xmlns:xlink="http://www.w3.org/1999/xlink" x="0px" y="0px" width="512px"
	 height="512px" viewBox="0 0 512 512" style="enable-background:new 0 0 512 512;" xml:space="preserve">
<g id="Artwork">
</g>
<g id="Layer_2">
	<g>
		<path d="M281.571,141.427c23.807,0,38.02-15.387,38.02-41.159c0-26.217-27.725-55.187-30.887-58.403
			c-1.881-1.913-4.449-2.991-7.133-2.991c-2.682,0-5.252,1.078-7.131,2.99c-3.162,3.218-30.889,32.188-30.889,58.404
			C243.552,126.04,257.765,141.427,281.571,141.427z M281.558,64c7.932,9.842,18.033,24.971,18.033,36.268
			c0,18.754-9.631,21.159-18.02,21.159s-18.02-2.405-18.02-21.159C263.552,88.887,273.544,73.896,281.558,64z"/>
		<path d="M365.187,374.137c-0.859-4.763-5.004-8.227-9.842-8.227h-31.787l-7.561-203.021c-0.201-5.374-4.615-9.628-9.994-9.628
			h-46.918c-5.377,0-9.792,4.254-9.992,9.628l-7.56,203.07l-39.237,0.025c-16.817,0-31.16,6.08-41.479,17.582
			c-13.24,14.759-16.402,34.106-15.088,46.19c0.558,5.123,4.892,8.919,9.93,8.919c0.361,0,0.727-0.02,1.094-0.06
			c5.49-0.598,9.457-5.532,8.859-11.023c-0.907-8.342,1.863-21.498,10.093-30.671c5.775-6.438,13.473-10.055,22.91-10.79
			c-0.037,1-0.069,2-0.069,2.994c0,46.317,37.682,84,83.998,84c46.318,0,84-37.683,84-84
			C366.544,384.182,366.087,379.139,365.187,374.137z M303.544,365.91h-33.746l32.453-34.713L303.544,365.91z M268.72,173.262
			h17.984l-18.73,20.034L268.72,173.262z M266.839,223.795l30.209-32.312l1.465,39.358l-33.262,35.577L266.839,223.795z
			 M264.116,296.882c0.109-0.105,0.223-0.202,0.328-0.314l35.117-37.563l1.668,44.757c-0.92,0.499-1.777,1.146-2.531,1.952
			l-36.357,38.89L264.116,296.882z M282.544,453.127c-35.288,0-63.998-28.71-63.998-64c0-1.044,0.029-2.096,0.083-3.152
			l127.831-0.064c0.057,1.078,0.084,2.151,0.084,3.217C346.544,424.417,317.835,453.127,282.544,453.127z"/>
	</g>
</g>
</svg>
