<?xml version="1.0" encoding="iso-8859-1"?>
<!-- Generator: Adobe Illustrator 16.0.0, SVG Export Plug-In . SVG Version: 6.00 Build 0)  -->
<!DOCTYPE svg PUBLIC "-//W3C//DTD SVG 1.1//EN" "http://www.w3.org/Graphics/SVG/1.1/DTD/svg11.dtd">
<svg version="1.1" xmlns="http://www.w3.org/2000/svg" xmlns:xlink="http://www.w3.org/1999/xlink" x="0px" y="0px" width="512px"
	 height="512px" viewBox="0 0 512 512" style="enable-background:new 0 0 512 512;" xml:space="preserve">
<g id="Artwork">
</g>
<g id="Layer_2">
	<g>
		<path d="M111.603,128.599c1.992-5.133-0.541-10.914-5.671-12.927c-5.143-2.018-10.945,0.517-12.961,5.658
			c-0.25,0.637-24.57,64.192,11.919,105.438c1.976,2.233,4.729,3.374,7.494,3.374c2.355,0,4.72-0.827,6.622-2.511
			c4.137-3.659,4.523-9.979,0.864-14.115C91.813,181.803,111.269,129.479,111.603,128.599z"/>
		<path d="M445.225,91.222c-16.058-32.09-42.187-53.482-73.573-60.237c-36.885-7.938-76.583,6.303-106.18,38.095
			c-3.763,4.042-3.537,10.369,0.505,14.133c4.042,3.764,10.37,3.537,14.133-0.506c25.12-26.982,56.951-38.709,87.333-32.169
			c53.156,11.438,84.564,75.754,70.014,143.37c-13.631,63.345-62.25,107.761-113.104,103.339c-3.388-0.295-6.693,1.151-8.775,3.84
			s-2.655,6.251-1.521,9.457l2.733,7.728l-8.237-2.013c-0.007-0.002-0.014-0.004-0.021-0.006l-5.149-1.258l5.444-5.176
			c2.524-2.4,3.618-5.941,2.886-9.348c-0.731-3.405-3.183-6.186-6.471-7.337c-6.326-2.216-12.418-5.278-18.109-9.101
			c-4.583-3.081-10.797-1.859-13.877,2.725c-3.08,4.584-1.86,10.798,2.725,13.877c2.675,1.798,5.425,3.461,8.237,4.984l-7.885,7.497
			c-2.65,2.521-3.714,6.286-2.772,9.82s3.737,6.272,7.29,7.141l12.4,3.03l-37.705,109.628l-35.735-101.921l13.233-3.085
			c3.61-0.842,6.458-3.612,7.401-7.197c0.942-3.586-0.176-7.397-2.906-9.906l-8.008-7.356c21.19-11.95,38.313-31.754,49.06-57.092
			c12.889-30.386,15.5-66.364,7.354-101.307c-8.728-37.438-28.716-69.981-56.284-91.636c-28.219-22.167-60.98-30.357-92.245-23.071
			c-31.266,7.289-57.026,29.125-72.533,61.485c-15.149,31.612-18.687,69.641-9.958,107.078c8.146,34.942,26.398,66.057,51.395,87.61
			c20.846,17.975,44.957,28.165,69.25,29.512l-3.929,10.141c-1.339,3.456-0.656,7.37,1.774,10.169
			c1.923,2.215,4.69,3.443,7.55,3.443c0.755,0,1.517-0.085,2.271-0.261l16.984-3.96l45.98,131.145
			c1.406,4.01,5.19,6.691,9.437,6.691c0.01,0,0.02,0,0.03,0c4.258-0.013,8.042-2.721,9.427-6.748l47.668-138.596l17.252,4.215
			c0.787,0.192,1.583,0.286,2.373,0.286c2.79,0,5.497-1.17,7.417-3.293c2.463-2.724,3.235-6.579,2.011-10.042l-4.143-11.712
			c24.506-1.605,48.713-12.233,69.447-30.738c24.625-21.978,42.343-53.398,49.892-88.476
			C465.097,160.533,460.912,122.571,445.225,91.222z M189.255,305.579c-50.762,5.317-100.143-38.288-114.853-101.393
			c-7.699-33.023-4.674-66.369,8.517-93.895c12.833-26.778,33.799-44.766,59.038-50.649c25.238-5.885,51.998,0.977,75.35,19.32
			c24.003,18.854,41.462,47.426,49.161,80.449c14.711,63.103-10.299,124.033-58.176,141.729c-3.268,1.208-5.671,4.029-6.345,7.447
			s0.48,6.939,3.046,9.297l5.076,4.663l-5.688,1.326c-0.013,0.003-0.025,0.006-0.038,0.009l-7.217,1.683l2.491-6.429
			c1.258-3.248,0.736-6.917-1.379-9.685c-1.903-2.49-4.849-3.928-7.944-3.928C189.95,305.525,189.603,305.543,189.255,305.579z"/>
		<path d="M404.046,190.327c1.319,0.586,2.698,0.864,4.054,0.864c3.832,0,7.488-2.216,9.145-5.943
			c22.349-50.313-19.995-103.591-20.425-104.123c-3.462-4.283-9.727-4.947-14.023-1.5c-4.296,3.446-4.987,9.731-1.556,14.04
			c0.352,0.442,34.974,44.637,17.727,83.464C396.725,182.177,398.999,188.085,404.046,190.327z"/>
	</g>
</g>
</svg>
