<?xml version="1.0" encoding="iso-8859-1"?>
<!-- Generator: Adobe Illustrator 16.0.0, SVG Export Plug-In . SVG Version: 6.00 Build 0)  -->
<!DOCTYPE svg PUBLIC "-//W3C//DTD SVG 1.1//EN" "http://www.w3.org/Graphics/SVG/1.1/DTD/svg11.dtd">
<svg version="1.1" xmlns="http://www.w3.org/2000/svg" xmlns:xlink="http://www.w3.org/1999/xlink" x="0px" y="0px" width="512px"
	 height="512px" viewBox="0 0 512 512" style="enable-background:new 0 0 512 512;" xml:space="preserve">
<g id="Artwork">
</g>
<g id="Layer_2">
	<path d="M363.256,275.492c-18.348-16.694-43.272-28.802-70.732-34.455c-4.299-9.49-15.01-16.456-26.524-19.814v-14.58
		c6.157,3.333,13.745,7.201,21.967,10.855c20.073,8.921,36.416,13.349,49.426,13.349c5.943,0,11.192-0.925,15.782-2.767
		c8.829-3.544,14.917-10.443,17.694-19.994c0.191-0.467,4.539-14.798,7.031-21.747c4.146-11.563,8.434-23.519,9.516-35.004
		c2.285-24.239-11.058-35.639-19.216-40.276c-6.837-3.887-14.729-5.857-23.454-5.857c-17.411,0-38.921,8.126-63.934,24.151
		c-5.441,3.486-10.458,6.935-14.812,10.051V31.699c0-5.522-4.477-10-10-10s-10,4.478-10,10v107.704
		c-4.354-3.116-9.371-6.564-14.813-10.051c-25.012-16.025-46.522-24.151-63.934-24.151c-8.726,0-16.617,1.971-23.455,5.857
		c-8.157,4.638-21.5,16.037-19.215,40.275c1.082,11.486,5.369,23.442,9.515,35.004c2.492,6.95,6.84,21.281,7.031,21.748
		c2.777,9.551,8.865,16.45,17.694,19.994c4.59,1.843,9.837,2.767,15.782,2.767c13.01,0,29.355-4.429,49.426-13.349
		c8.223-3.654,15.811-7.522,21.967-10.855v14.58c-11.513,3.358-22.225,10.325-26.524,19.814
		c-27.46,5.654-52.384,17.762-70.73,34.455C127.629,294.703,116,319.212,116,344.502c0,22.827,9.964,43.276,30.462,62.517
		c16.752,15.724,37.865,28.124,56.514,39.078c12.086,7.101,23.502,13.807,31.461,20.126c8.799,6.986,10.113,10.911,10.113,12.629
		c0,6.313,5.136,11.449,11.45,11.449s11.45-5.136,11.45-11.449c0-1.277,0.967-5.013,9.925-12.099
		c7.866-6.222,19.141-12.868,31.086-19.908c18.758-11.059,40.02-23.592,56.884-39.446C385.973,388.006,396,367.433,396,344.502
		C396,319.213,384.372,294.704,363.256,275.492z M345.729,209.518c-15.319,6.158-51.315-9.49-75.639-23.403
		c22.021-3.72,68.811-8.142,80.871,18.356C349.582,207.564,347.584,208.773,345.729,209.518z M291.602,146.192
		c21.434-13.732,39.811-20.991,53.145-20.991c5.218,0,9.784,1.092,13.57,3.244c7.133,4.056,10.138,10.929,9.188,21.014
		c-0.845,8.979-4.701,19.73-8.43,30.129c-0.173,0.484-0.348,0.97-0.521,1.456c-14.676-13.967-37.275-17.824-57.775-17.824
		c-13.441,0-25.974,1.659-34.777,3.216v-2.068C270.851,160.569,280.264,153.457,291.602,146.192z M153.683,128.445
		c3.788-2.152,8.354-3.244,13.571-3.244c13.334,0,31.711,7.259,53.144,20.991c11.338,7.265,20.751,14.377,25.602,18.175v2.07
		c-22.224-3.931-68.251-8.52-92.552,14.607c-0.174-0.487-0.349-0.973-0.522-1.458c-3.729-10.397-7.584-21.148-8.43-30.129
		C143.545,139.374,146.551,132.501,153.683,128.445z M166.271,209.518c-1.858-0.746-3.86-1.956-5.239-5.062
		c6.222-13.725,22.336-20.863,47.972-21.229c12.494-0.185,24.577,1.378,32.992,2.837
		C217.671,199.99,181.608,215.677,166.271,209.518z M298.298,429.619c-17.693,10.429-33.072,19.493-42.155,29.501
		c-9.138-10.354-24.89-19.607-43.06-30.282C178.741,408.667,136,383.563,136,344.502c0-19.588,9.307-38.843,26.206-54.217
		c16.948-15.421,40.721-26.327,66.939-30.709c4.692-0.784,8.183-4.766,8.346-9.52c0.092-2.672,8.061-8.903,18.509-10.639
		c10.448,1.735,18.417,7.968,18.509,10.639c0.164,4.755,3.654,8.735,8.346,9.52c26.219,4.382,49.993,15.288,66.941,30.709
		C366.694,305.66,376,324.914,376,344.502C376,383.813,332.92,409.209,298.298,429.619z"/>
</g>
</svg>
