<?xml version="1.0" encoding="iso-8859-1"?>
<!-- Generator: Adobe Illustrator 16.0.0, SVG Export Plug-In . SVG Version: 6.00 Build 0)  -->
<!DOCTYPE svg PUBLIC "-//W3C//DTD SVG 1.1//EN" "http://www.w3.org/Graphics/SVG/1.1/DTD/svg11.dtd">
<svg version="1.1" xmlns="http://www.w3.org/2000/svg" xmlns:xlink="http://www.w3.org/1999/xlink" x="0px" y="0px" width="512px"
	 height="512px" viewBox="0 0 512 512" style="enable-background:new 0 0 512 512;" xml:space="preserve">
<g id="Artwork">
</g>
<g id="Layer_3">
	<g>
		<path d="M402.681,320.13c-0.504-0.434-1.996-1.578-180.42-126.611c-4.393-6.268-10.318-12.675-17.239-18.632
			c-5.18-4.457-22.075-18.04-36.809-19.289l-54.76-38.271c-1.196-1.289-2.73-2.26-4.467-2.778l-21.88-6.525
			c-3.777-1.127-7.864,0.071-10.436,3.059l-43.938,51.035c-2.572,2.987-3.148,7.206-1.473,10.774l9.701,20.66
			c0.766,1.632,1.943,2.998,3.383,3.989l47.389,47.152c3.517,14.327,19.361,28.913,24.521,33.353
			c6.922,5.957,14.143,10.859,20.997,14.269c150.985,158.563,151.596,159.088,152.1,159.522c3.195,2.749,8.791,5.968,17.469,5.968
			c6.555,0,14.868-1.836,25.234-7.097c15.141-7.683,31.313-21.019,45.541-37.551c14.226-16.534,25.001-34.516,30.341-50.633
			C416.43,336.88,408.29,324.956,402.681,320.13z M298.869,412.121c-2.701,6.592-4.072,11.848-4.718,15.881
			c-25.611-26.828-100.804-105.777-143.678-150.803c-0.867-0.91-1.896-1.648-3.037-2.177c-5.641-2.615-12.083-6.925-18.139-12.136
			c-12.548-10.799-18.085-20.718-18.262-23.629c-0.148-2.447-1.19-4.755-2.928-6.484L58.115,183.03l-5.999-12.774l35.483-41.215
			l13.432,4.006l58.24,40.702c1.93,1.349,4.276,1.971,6.619,1.764c2.92-0.263,13.539,3.736,26.086,14.533
			c6.056,5.213,11.28,10.94,14.709,16.128c0.692,1.048,1.576,1.955,2.604,2.676c51.33,35.97,141.659,99.286,171.275,120.099
			c-4.086,1.14-9.603,3.337-16.584,7.508c-12.64,7.554-26.144,19.318-38.025,33.127C314.069,383.395,304.45,398.502,298.869,412.121
			z M388.949,356.235c-4.471,13.496-14.136,29.489-26.516,43.877c-18.695,21.724-37.451,33.26-49.167,36.677
			c0-0.898,0.375-7.961,4.11-17.084c4.784-11.685,13.218-24.852,23.739-37.077c10.517-12.223,23.84-23.368,33.123-29.003
			c9.283-5.636,17.041-6.996,17.041-6.996C390.894,349.398,390.149,352.613,388.949,356.235z"/>
		<g>
			<g>
				<g>
					<g>
						<path d="M127.912,175.728c-0.273-0.918-0.805-1.737-1.53-2.362l-23.507-20.23c-1.005-0.864-2.312-1.301-3.635-1.195
							c-1.323,0.099-2.551,0.719-3.417,1.725L79.15,173.039c-1.801,2.093-1.564,5.25,0.529,7.051l23.505,20.228
							c0.726,0.625,1.616,1.028,2.564,1.161l23.429,3.299c0.233,0.033,0.466,0.049,0.698,0.049c1.444,0,2.833-0.626,3.79-1.738
							c1.11-1.291,1.488-3.058,1.002-4.689L127.912,175.728z"/>
					</g>
				</g>
			</g>
			<g>
				<g>
					<g>
						<path d="M191.173,237.004c-1.005-0.864-2.306-1.298-3.635-1.195c-1.322,0.099-2.551,0.72-3.416,1.725l-8.873,10.312
							c-1.801,2.094-1.564,5.251,0.529,7.052l10.312,8.872c0.944,0.813,2.104,1.21,3.259,1.21c1.406,0,2.804-0.59,3.792-1.738
							l8.873-10.312c1.801-2.094,1.564-5.25-0.529-7.052L191.173,237.004z"/>
					</g>
				</g>
			</g>
			<g>
				<g>
					<g>
						<path d="M266.189,301.557l-10.311-8.872c-2.093-1.802-5.25-1.564-7.051,0.529l-8.872,10.31
							c-1.801,2.093-1.564,5.25,0.529,7.052l10.311,8.873c0.91,0.783,2.068,1.21,3.261,1.21c0.124,0,0.249-0.005,0.374-0.015
							c1.323-0.099,2.551-0.719,3.417-1.725l8.873-10.311c0.865-1.006,1.295-2.313,1.196-3.636S267.195,302.422,266.189,301.557z"/>
					</g>
				</g>
			</g>
		</g>
		<g>
			<g>
				<g>
					<path d="M371.724,268.984c-11.855,0-21.5-9.645-21.5-21.5c0-5.426,2.576-13.564,9.837-18.644
						c3.749-2.623,9.668-5.04,18.147-3.881l-14.343-57.493c-0.423-1.694,0.069-3.485,1.296-4.727s3.015-1.752,4.712-1.349
						c37.497,8.921,57.491,20.112,62.923,35.219c4.051,11.268,6.319,20.899,6.414,21.304c0.556,2.377-0.686,4.808-2.938,5.75
						c-2.252,0.941-4.856,0.121-6.158-1.942c-0.069-0.101-10.424-14.948-47.378-19.928l7.183,28.792
						c0.01,0.036,0.019,0.073,0.027,0.11l3.747,15.021c1.156,4.658-0.084,9.618-3.49,13.973
						C385.786,265.336,378.532,268.984,371.724,268.984z M373.975,234.677c-3.177,0-5.936,0.786-8.182,2.357
						c-3.848,2.691-5.57,7.188-5.57,10.45c0,6.342,5.159,11.5,11.5,11.5c3.729,0,8.089-2.243,10.602-5.456
						c0.852-1.088,2.199-3.236,1.663-5.397l-3.091-12.393C378.423,235.03,376.104,234.677,373.975,234.677z M380.143,191.401
						c21.733,2.42,35.94,8.071,44.895,13.391c-0.511-1.551-1.062-3.159-1.651-4.798c-3.725-10.361-19.793-19.381-47.799-26.853
						L380.143,191.401z"/>
				</g>
			</g>
		</g>
		<g>
			<g>
				<g>
					<path d="M417.275,156.924c-11.39,0-20.656-9.266-20.656-20.655c0-6.86,3.707-13.887,9.443-17.9
						c3.542-2.478,9.102-4.765,17.027-3.775l-13.518-54.187c-0.423-1.694,0.069-3.485,1.296-4.727
						c1.228-1.242,3.014-1.752,4.712-1.349c35.67,8.486,54.699,19.156,59.885,33.579c3.849,10.704,6.004,19.857,6.094,20.242
						c0.556,2.377-0.686,4.808-2.938,5.75c-2.252,0.943-4.855,0.122-6.158-1.942c-0.062-0.089-9.781-13.987-44.398-18.74
						l6.723,26.949c0.009,0.037,0.019,0.074,0.027,0.111l3.555,14.248c1.116,4.499-0.078,9.283-3.359,13.479
						C430.772,153.424,423.811,156.924,417.275,156.924z M419.413,124.371c-2.961,0-5.531,0.731-7.618,2.191
						c-3.575,2.501-5.175,6.677-5.175,9.706c0,5.875,4.78,10.655,10.656,10.655c3.465,0,7.519-2.088,9.858-5.078
						c0.779-0.996,2.014-2.958,1.531-4.903l-2.897-11.613C423.496,124.69,421.368,124.371,419.413,124.371z M425.469,82.819
						c20.089,2.259,33.405,7.432,41.938,12.383c-0.423-1.271-0.875-2.579-1.353-3.908c-3.487-9.698-18.532-18.165-44.76-25.206
						L425.469,82.819z"/>
				</g>
			</g>
		</g>
		<g>
			<g>
				<g>
					<path d="M331.525,161.371c-9.82,0-17.81-7.989-17.81-17.811c0-5.9,3.185-11.942,8.115-15.391
						c2.84-1.987,7.183-3.834,13.258-3.38l-10.748-43.083c-0.423-1.694,0.069-3.485,1.296-4.727s3.013-1.751,4.712-1.349
						c29.514,7.022,45.289,15.936,49.646,28.053c3.167,8.808,4.942,16.347,5.016,16.663c0.556,2.377-0.687,4.809-2.938,5.751
						c-2.25,0.941-4.855,0.121-6.158-1.943c-0.033-0.045-7.625-10.747-34.352-14.728l5.169,20.719
						c0.012,0.045,0.023,0.09,0.034,0.135l2.903,11.636c0.982,3.96-0.053,8.151-2.915,11.809
						C343.119,158.37,337.142,161.371,331.525,161.371z M333.277,134.733c-2.236,0-4.163,0.544-5.715,1.63
						c-2.643,1.85-3.847,5.027-3.847,7.197c0,4.307,3.503,7.811,7.81,7.811c2.534,0,5.625-1.601,7.351-3.807
						c0.536-0.685,1.389-2.016,1.087-3.232l-2.241-8.984C336.134,134.938,334.647,134.733,333.277,134.733z M338.958,98.995
						c14.711,1.719,24.948,5.28,31.928,8.927c-0.1-0.283-0.201-0.568-0.304-0.854c-1.889-5.253-9.553-12.718-34.511-19.644
						L338.958,98.995z"/>
				</g>
			</g>
		</g>
	</g>
</g>
</svg>
