<?xml version="1.0" encoding="iso-8859-1"?>
<!-- Generator: Adobe Illustrator 16.0.0, SVG Export Plug-In . SVG Version: 6.00 Build 0)  -->
<!DOCTYPE svg PUBLIC "-//W3C//DTD SVG 1.1//EN" "http://www.w3.org/Graphics/SVG/1.1/DTD/svg11.dtd">
<svg version="1.1" xmlns="http://www.w3.org/2000/svg" xmlns:xlink="http://www.w3.org/1999/xlink" x="0px" y="0px" width="512px"
	 height="512px" viewBox="0 0 512 512" style="enable-background:new 0 0 512 512;" xml:space="preserve">
<g id="Artwork">
</g>
<g id="Layer_3">
	<g>
		<path d="M263.037,351.038h49.709c5.523,0,10-4.477,10-10v-49.707c0-5.523-4.477-10-10-10h-49.709c-5.521,0-10,4.477-10,10v49.707
			C253.037,346.561,257.516,351.038,263.037,351.038z M273.037,301.331h29.709v29.707h-29.709V301.331z"/>
		<path d="M241.078,341.038v-49.707c0-5.523-4.477-10-10-10h-49.707c-5.521,0-10,4.477-10,10v49.707c0,5.523,4.479,10,10,10h49.707
			C236.602,351.038,241.078,346.561,241.078,341.038z M221.078,331.038h-29.707v-29.707h29.707V331.038z"/>
		<path d="M181.371,268.447h49.707c5.523,0,10-4.477,10-10v-49.708c0-5.523-4.477-10-10-10h-49.707c-5.521,0-10,4.477-10,10v49.708
			C171.371,263.97,175.85,268.447,181.371,268.447z M191.371,218.739h29.707v29.708h-29.707V218.739z"/>
		<path d="M263.037,268.447h49.709c5.523,0,10-4.477,10-10v-49.708c0-5.523-4.477-10-10-10h-49.709c-5.521,0-10,4.477-10,10v49.708
			C253.037,263.97,257.516,268.447,263.037,268.447z M273.037,218.739h29.709v29.708h-29.709V218.739z"/>
		<path d="M421.777,368.233c-3.449-1.707-7.574-1.283-10.604,1.094c-12.078,9.471-24.527,16.415-37.529,20.942V219.613l23.57,17.009
			c3.045,2.197,7.064,2.504,10.406,0.794s5.445-5.148,5.445-8.903v-46.14c0-3.212-1.543-6.229-4.148-8.109l-35.273-25.455V86.39
			c0-5.523-4.477-10-10-10H325.09c-5.521,0-10,4.477-10,10v20.165l-62.182-44.873c-3.494-2.521-8.211-2.522-11.703,0L85.191,174.264
			c-2.605,1.879-4.148,4.896-4.148,8.109v46.14c0,3.754,2.104,7.193,5.445,8.903c1.438,0.735,2.998,1.097,4.555,1.097
			c2.063,0,4.115-0.638,5.852-1.891l23.578-17.014v161.928c-4.334,2.219-8.459,4.643-12.318,7.287
			c-26.633,18.251-40.984,45.777-41.5,79.603c-0.059,3.857,2.107,7.405,5.564,9.116c3.459,1.712,7.594,1.279,10.623-1.109
			c23.672-18.652,46.074-27.339,70.5-27.339c24.725,0,49.32,8.619,77.799,18.599c7.271,2.548,14.789,5.183,22.543,7.748
			c0.137,0.046,0.275,0.088,0.416,0.128c14.426,4.086,29.779,6.158,45.639,6.158c32.566,0,63.021-8.776,85.75-24.712
			c26.953-18.897,41.426-46.452,41.855-79.688C427.393,373.476,425.229,369.94,421.777,368.233z M335.09,96.39h18.555v37.357
			l-18.555-13.768V96.39z M101.043,208.965v-21.477L247.057,82.123l146.01,105.366v21.476l-74.516-53.773l-65.584-48.015
			c-3.518-2.575-8.297-2.575-11.814,0l-65.211,47.742L101.043,208.965z M353.645,205.671v189.574
			c-5.994,0.926-12.109,1.41-18.373,1.41c-21.465,0-44.918-5.667-69.781-16.879c-20.951-9.236-46.633-14.323-72.314-14.323
			c-18.781,0-36.689,2.727-52.703,7.872V205.671l47.256-34.595l59.328-42.813l59.709,43.088L353.645,205.671z M299.738,461.725
			c-13.742,0-27.563-1.847-39.982-5.343c-7.514-2.489-14.877-5.069-22-7.565c-28.945-10.144-56.285-19.724-84.414-19.724
			c-22.391,0-43.117,5.927-63.938,18.453c6.346-24.406,23.035-40.518,44.033-50.204l2.109-0.947
			c17.541-7.632,37.869-10.942,57.629-10.942c22.965,0,45.781,4.483,64.17,12.589c27.389,12.351,53.605,18.613,77.926,18.613
			c10.186,0,20.15-1.105,29.871-3.273l1.367-0.298c12.624-2.953,25.587-7.979,38.061-15.175
			C392.85,441.807,345.982,461.725,299.738,461.725z"/>
		<g>
			<path d="M413.773,69.139c-10.324,0-19.998-4.333-28.758-12.883c-4.23-4.128-8.387-6.094-12.621-5.978
				c-7.408,0.181-13.51,6.399-13.568,6.462c-3.76,4.046-10.088,4.278-14.133,0.52c-4.047-3.759-4.279-10.086-0.52-14.133
				c1.184-1.274,12.018-12.458,27.73-12.843c6.742-0.165,16.9,1.724,27.08,11.659c6.461,6.306,12.867,8.431,19.594,6.493
				c5.654-1.63,9.611-5.502,9.65-5.542c3.854-3.957,10.154-4.01,14.111-0.157c3.957,3.853,4.01,10.215,0.156,14.172
				c-1.197,1.23-12.164,12.021-28.252,12.226C414.088,69.138,413.93,69.139,413.773,69.139z"/>
		</g>
	</g>
</g>
</svg>
