<?xml version="1.0" encoding="iso-8859-1"?>
<!-- Generator: Adobe Illustrator 16.0.0, SVG Export Plug-In . SVG Version: 6.00 Build 0)  -->
<!DOCTYPE svg PUBLIC "-//W3C//DTD SVG 1.1//EN" "http://www.w3.org/Graphics/SVG/1.1/DTD/svg11.dtd">
<svg version="1.1" xmlns="http://www.w3.org/2000/svg" xmlns:xlink="http://www.w3.org/1999/xlink" x="0px" y="0px" width="512px"
	 height="512px" viewBox="0 0 512 512" style="enable-background:new 0 0 512 512;" xml:space="preserve">
<g id="Artwork">
</g>
<g id="Layer_2">
	<g>
		<path d="M287.545,319.285l-29.115-20.589l0.457-35.656c0.049-3.806-2.068-7.31-5.459-9.038c-3.393-1.729-7.473-1.381-10.521,0.896
			l-28.578,21.327l-33.77-11.452c-3.605-1.222-7.59-0.293-10.283,2.399c-2.691,2.692-3.621,6.678-2.398,10.283l11.451,33.77
			l-21.326,28.578c-2.277,3.051-2.623,7.129-0.896,10.521c1.729,3.392,5.27,5.52,9.039,5.459l35.654-0.455l20.59,29.113
			c1.893,2.675,4.949,4.227,8.162,4.227c0.52,0,1.043-0.041,1.566-0.124c3.76-0.596,6.855-3.274,7.984-6.909l10.586-34.051
			l34.051-10.584c3.635-1.13,6.313-4.226,6.908-7.985C292.242,325.254,290.652,321.483,287.545,319.285z M239.73,330.045
			c-3.143,0.977-5.604,3.438-6.58,6.581l-6.133,19.723l-11.926-16.863c-1.875-2.652-4.92-4.226-8.164-4.226
			c-0.041,0-0.084,0-0.127,0.001l-20.652,0.264l12.354-16.553c1.967-2.638,2.512-6.075,1.455-9.192l-6.633-19.56l19.559,6.633
			c3.119,1.057,6.557,0.513,9.193-1.456l16.553-12.353l-0.264,20.652c-0.043,3.291,1.537,6.392,4.225,8.292l16.863,11.925
			L239.73,330.045z"/>
		<path d="M415.367,45.196c-33.625-14.943-74.965,4.36-92.145,43.028c-2.973,6.691-5.01,13.53-6.207,20.343l-30.141,1.482
			c-2.48,0.122-4.824,1.162-6.58,2.917L60.217,333.044c-1.875,1.875-2.928,4.419-2.928,7.071s1.053,5.196,2.928,7.071
			l123.037,123.036c1.953,1.953,4.512,2.929,7.072,2.929c2.559,0,5.117-0.977,7.07-2.929l220.078-220.078
			c1.754-1.755,2.795-4.101,2.916-6.58l3.531-71.801c8.934-7.957,16.24-18.014,21.275-29.344
			C462.377,103.753,448.996,60.139,415.367,45.196z M190.326,449.009L81.432,340.115l210.277-210.28l24.225-1.191
			c1.24,17.583,8.244,33.737,19.984,45.171c-1.422,5.623,0.047,11.827,4.445,16.226c6.648,6.648,17.43,6.648,24.078,0
			s6.648-17.429,0-24.077c-4.379-4.38-10.551-5.855-16.154-4.463c-8.734-8.355-13.941-20.415-14.93-33.713l72.879-3.584
			l-5.633,114.527L190.326,449.009z M429.23,135.326c-1.152,2.593-2.453,5.1-3.887,7.506l1.41-28.668
			c0.139-2.819-0.92-5.566-2.916-7.563c-1.996-1.995-4.742-3.055-7.563-2.917l-81.258,3.997c0.984-4.141,2.359-8.284,4.172-12.363
			c13.268-29.864,44.26-45.187,69.084-34.155C433.098,72.194,442.5,105.463,429.23,135.326z"/>
	</g>
</g>
</svg>
