<?xml version="1.0" encoding="iso-8859-1"?>
<!-- Generator: Adobe Illustrator 16.0.0, SVG Export Plug-In . SVG Version: 6.00 Build 0)  -->
<!DOCTYPE svg PUBLIC "-//W3C//DTD SVG 1.1//EN" "http://www.w3.org/Graphics/SVG/1.1/DTD/svg11.dtd">
<svg version="1.1" xmlns="http://www.w3.org/2000/svg" xmlns:xlink="http://www.w3.org/1999/xlink" x="0px" y="0px" width="512px"
	 height="512px" viewBox="0 0 512 512" style="enable-background:new 0 0 512 512;" xml:space="preserve">
<g id="Artwork">
</g>
<g id="Layer_2">
	<path d="M292.092,187.464v-73.777c3.705-1.465,6.324-5.078,6.324-9.303V36.526c0-5.522-4.477-10-10-10h-65.559
		c-5.523,0-10,4.478-10,10v67.857c0,4.226,2.619,7.839,6.324,9.303v73.777c-12.439,13.505-57.219,68.772-57.219,164.453v123.557
		c0,5.522,4.479,10,10,10h167.348c5.523,0,10-4.478,10-10V351.917C349.311,256.236,304.531,200.969,292.092,187.464z
		 M278.416,46.526v47.857h-45.559V46.526H278.416z M208.977,237.559c13.398-25.441,26.998-38.716,27.115-38.83
		c1.975-1.887,3.09-4.498,3.09-7.229v-77.116h32.91V191.5c0,2.73,1.117,5.342,3.092,7.229c0.541,0.518,54.127,52.898,54.127,153.188
		v18.417h-36.865c-1.145-10.94-4.152-21.104-8.762-29.31c-7.01-12.482-16.971-19.357-28.047-19.357
		c-11.074,0-21.035,6.875-28.047,19.357c-4.609,8.206-7.617,18.369-8.762,29.31h-36.865v-18.417
		C181.963,299.799,196.654,260.962,208.977,237.559z M272.971,380.334c0,23.604-10.266,38.667-17.334,38.667
		c-7.066,0-17.334-15.063-17.334-38.667s10.268-38.667,17.334-38.667C262.705,341.667,272.971,356.73,272.971,380.334z
		 M181.963,465.474v-75.14h36.865c1.145,10.94,4.152,21.104,8.762,29.31c7.012,12.482,16.973,19.357,28.047,19.357
		c11.076,0,21.037-6.875,28.047-19.357c4.609-8.206,7.617-18.369,8.762-29.31h36.865v75.14H181.963z"/>
</g>
</svg>
