<?xml version="1.0" encoding="iso-8859-1"?>
<!-- Generator: Adobe Illustrator 16.0.0, SVG Export Plug-In . SVG Version: 6.00 Build 0)  -->
<!DOCTYPE svg PUBLIC "-//W3C//DTD SVG 1.1//EN" "http://www.w3.org/Graphics/SVG/1.1/DTD/svg11.dtd">
<svg version="1.1" xmlns="http://www.w3.org/2000/svg" xmlns:xlink="http://www.w3.org/1999/xlink" x="0px" y="0px" width="512px"
	 height="512px" viewBox="0 0 512 512" style="enable-background:new 0 0 512 512;" xml:space="preserve">
<g id="Artwork">
</g>
<g id="Layer_3">
	<g>
		<path d="M294.919,131.832c31.797,12.01,57.282,37.002,69.92,68.569c1.565,3.909,5.319,6.286,9.287,6.286
			c1.237,0,2.495-0.231,3.714-0.719c5.127-2.053,7.62-7.873,5.567-13c-14.716-36.758-44.393-65.86-81.421-79.846
			c-5.165-1.951-10.937,0.654-12.888,5.822C287.146,124.11,289.752,129.88,294.919,131.832z"/>
		<path d="M444.261,435.927l-49.678-72.809c-0.311-0.455-0.666-0.867-1.04-1.258c28.941-33.167,44.73-75.134,44.73-119.611
			c0-100.512-81.772-182.284-182.284-182.284S73.706,141.737,73.706,242.249c0,44.477,15.789,86.444,44.73,119.611
			c-0.374,0.392-0.729,0.804-1.04,1.258l-50,73.281c-2.09,3.063-2.313,7.029-0.582,10.308c1.731,3.278,5.135,5.329,8.842,5.329
			h360.667c0.007,0,0.014,0,0.02,0c5.523,0,10-4.477,10-10C446.343,439.735,445.567,437.617,444.261,435.927z M93.706,242.249
			c0-89.484,72.8-162.284,162.284-162.284s162.284,72.8,162.284,162.284c0,42.395-16.113,82.231-45.461,112.631h-27.825v-88.028
			l15.242,15.242c1.953,1.953,4.512,2.929,7.071,2.929c2.559,0,5.119-0.977,7.071-2.929c3.905-3.905,3.906-10.237,0-14.142
			L263.061,156.639c-1.875-1.875-4.419-2.929-7.071-2.929s-5.196,1.054-7.071,2.929L137.607,267.952
			c-3.905,3.905-3.905,10.237,0,14.142s10.237,3.905,14.142,0l15.242-15.242v88.028h-27.825
			C109.819,324.48,93.706,284.643,93.706,242.249z M283.213,276.264h-54.447c-5.523,0-10,4.477-10,10v68.616h-31.774V246.851
			l68.998-68.999l68.998,68.999v108.029h-31.774v-68.616C293.213,280.741,288.736,276.264,283.213,276.264z M273.213,296.264v58.616
			h-34.447v-58.616H273.213z M94.585,432.036l36.354-53.281h250.102l36.354,53.281H94.585z"/>
	</g>
</g>
</svg>
