<?xml version="1.0" encoding="iso-8859-1"?>
<!-- Generator: Adobe Illustrator 16.0.0, SVG Export Plug-In . SVG Version: 6.00 Build 0)  -->
<!DOCTYPE svg PUBLIC "-//W3C//DTD SVG 1.1//EN" "http://www.w3.org/Graphics/SVG/1.1/DTD/svg11.dtd">
<svg version="1.1" xmlns="http://www.w3.org/2000/svg" xmlns:xlink="http://www.w3.org/1999/xlink" x="0px" y="0px" width="512px"
	 height="512px" viewBox="0 0 512 512" style="enable-background:new 0 0 512 512;" xml:space="preserve">
<g id="Artwork">
</g>
<g id="Layer_3">
	<g>
		<g>
			<g>
				<g>
					<g>
						<path d="M256,472.24c-1.473,0-2.945-0.325-4.308-0.975l-11.467-5.473c-5.659-2.7-56.77-27.656-107.478-71.612
							c-29.648-25.7-53.279-52.875-70.238-80.77c-21.36-35.134-32.191-71.548-32.191-108.232c0-43.036,14.379-83.769,40.487-114.697
							C98.42,57.773,135.666,39.76,175.682,39.76c28.427,0,56.65,9.698,80.318,27.458c23.668-17.761,51.892-27.458,80.318-27.458
							c40.015,0,77.26,18.013,104.873,50.72c26.11,30.927,40.49,71.661,40.49,114.698c0,36.684-10.831,73.099-32.191,108.233
							c-16.959,27.894-40.591,55.069-70.239,80.769c-50.693,43.943-101.815,68.91-107.478,71.612l-11.466,5.473
							C258.945,471.915,257.473,472.24,256,472.24z M175.682,59.76c-34.025,0-65.844,15.492-89.594,43.623
							c-23.066,27.324-35.77,63.476-35.77,101.795c0,60.436,32.141,118.941,95.53,173.89
							c49.557,42.958,100.832,67.644,102.99,68.674l7.161,3.417l7.159-3.417c2.16-1.03,53.448-25.728,102.991-68.674
							c63.39-54.949,95.531-113.454,95.531-173.89c0-38.32-12.704-74.472-35.771-101.796c-23.75-28.13-55.567-43.622-89.592-43.622
							c-26.723,0-52.266,9.64-73.867,27.877c-3.727,3.146-9.176,3.146-12.902,0C227.947,69.4,202.404,59.76,175.682,59.76z"/>
					</g>
				</g>
			</g>
		</g>
		<g>
			<g>
				<g>
					<path d="M256,415.844c-1.653,0-3.308-0.41-4.804-1.229c-21.025-11.516-61.699-35.993-97.867-70.53
						C107.04,299.884,83.57,254.207,83.57,208.323c0-61.849,41.321-112.167,92.111-112.167c38.333,0,66.79,30.932,80.318,49.317
						c13.528-18.385,41.985-49.317,80.318-49.317c50.79,0,92.111,50.318,92.111,112.167c0,45.884-23.47,91.561-69.759,135.762
						c-36.168,34.537-76.842,59.014-97.867,70.53C259.308,415.435,257.653,415.844,256,415.844z M175.682,116.156
						c-39.763,0-72.111,41.346-72.111,92.167c0,91.427,110.932,162.659,152.43,186.079c41.498-23.42,152.43-94.652,152.43-186.079
						c0-50.821-32.349-92.167-72.111-92.167c-41.794,0-71.302,51.792-71.595,52.315c-1.769,3.157-5.105,5.111-8.724,5.111
						s-6.955-1.955-8.724-5.111C246.988,167.959,217.296,116.156,175.682,116.156z"/>
				</g>
			</g>
		</g>
	</g>
</g>
</svg>
